<svg xmlns="http://www.w3.org/2000/svg" width="32.651" height="40.256" viewBox="0 0 32.651 40.256">
  <g id="apple" transform="translate(-8.5)">
    <path id="Apple-2" data-name="Apple" d="M26.9,3.049A8.991,8.991,0,0,1,32.809,0,8.9,8.9,0,0,1,30.72,6.429a7.42,7.42,0,0,1-5.946,2.849A8.444,8.444,0,0,1,26.9,3.049ZM38.374,35.258c-1.673,2.453-3.4,4.892-6.136,4.944-2.689.051-3.551-1.6-6.619-1.6s-4.033,1.546-6.571,1.649c-2.638.1-4.644-2.651-6.33-5.093-3.445-5-6.076-14.123-2.539-20.284a9.805,9.805,0,0,1,8.291-5.046c2.591-.048,5.038,1.752,6.619,1.752s4.556-2.161,7.678-1.844A9.352,9.352,0,0,1,40.1,13.724a9.122,9.122,0,0,0-4.328,7.667,8.875,8.875,0,0,0,5.38,8.14A22.241,22.241,0,0,1,38.374,35.258Z"/>
  </g>
</svg>
