<svg id="bootstrap" xmlns="http://www.w3.org/2000/svg" width="33.623" height="33.623" viewBox="0 0 33.623 33.623">
  <path id="Path_187" data-name="Path 187" d="M0,29.287a4.335,4.335,0,0,0,4.335,4.335H29.287a4.335,4.335,0,0,0,4.335-4.335V4.335A4.335,4.335,0,0,0,29.287,0H4.335A4.335,4.335,0,0,0,0,4.335Z" fill="#563d7c"/>
  <path id="Path_188" data-name="Path 188" d="M76.551,58.74V53.978h4.191a6.525,6.525,0,0,1,1.155.1,2.884,2.884,0,0,1,.984.356,1.9,1.9,0,0,1,.684.713,2.366,2.366,0,0,1,.257,1.169,2.154,2.154,0,0,1-.77,1.853,3.218,3.218,0,0,1-1.967.57ZM72.075,50.5V70.857H81.94a10.409,10.409,0,0,0,2.666-.342,7.129,7.129,0,0,0,2.309-1.055,5.2,5.2,0,0,0,1.611-1.839,6.223,6.223,0,0,0-.328-5.93,4.893,4.893,0,0,0-2.808-1.9,5.074,5.074,0,0,0,2.067-1.682,4.459,4.459,0,0,0,.7-2.566,5.461,5.461,0,0,0-.47-2.395A3.912,3.912,0,0,0,86.359,51.6a5.725,5.725,0,0,0-2.053-.841,12.678,12.678,0,0,0-2.652-.257Zm4.476,16.879V61.791h4.876a3.772,3.772,0,0,1,2.338.67,2.632,2.632,0,0,1,.884,2.238,2.8,2.8,0,0,1-.271,1.312,2.152,2.152,0,0,1-.727.813,3.078,3.078,0,0,1-1.055.428,5.974,5.974,0,0,1-1.255.128Z" transform="translate(-62.609 -43.867)" fill="#fff"/>
</svg>
