<svg xmlns="http://www.w3.org/2000/svg" width="42.978" height="28.3" viewBox="0 0 42.978 28.3">
  <g id="cassandra" transform="translate(-0.9 -0.2)">
    <g id="Group_197" data-name="Group 197" transform="translate(3.299 21.874)">
      <path id="Path_306" data-name="Path 306" d="M2.834,13.2a1.37,1.37,0,0,1,.889.252c.034.268-.218.7-.369.7a1.567,1.567,0,0,0-.57-.1c-.872,0-1.308.906-1.308,1.795,0,.554.185.889.637.889a2.03,2.03,0,0,0,1.208-.554.506.506,0,0,1,.151.369.736.736,0,0,1-.235.554,2.181,2.181,0,0,1-1.577.57C.8,17.679.2,17.193.2,16.052A2.7,2.7,0,0,1,2.834,13.2Z" transform="translate(-0.2 -11.053)" fill="#373535"/>
      <path id="Path_307" data-name="Path 307" d="M25.043,16.689c.47,0,1.325-.822,1.56-2.4.017-.1.017-.117.034-.218a1.321,1.321,0,0,0-.386-.067,1.178,1.178,0,0,0-1.04.554,2.731,2.731,0,0,0-.486,1.527c0,.386.117.6.319.6ZM23.5,16.253a3.3,3.3,0,0,1,.906-2.265,2.7,2.7,0,0,1,2.047-.788,9.3,9.3,0,0,1,1.443.218c-.1.419-.319,2.013-.436,2.936a7.278,7.278,0,0,0-.05,1.141,3.573,3.573,0,0,1-1.074.168c-.084,0-.1-.386-.084-.772a3.608,3.608,0,0,0,.034-.386,2.316,2.316,0,0,1-1.879,1.141c-.554.017-.906-.453-.906-1.392Z" transform="translate(-19.591 -11.053)" fill="#373535"/>
      <path id="Path_308" data-name="Path 308" d="M53.617,13.2a1.458,1.458,0,0,1,.939.319c-.017.268-.218.721-.554.587a1.4,1.4,0,0,0-.486-.084c-.252,0-.486.117-.486.352,0,.185.134.319.772.772a1.249,1.249,0,0,1,.637,1.057,1.632,1.632,0,0,1-1.812,1.459,1.314,1.314,0,0,1-1.007-.369c-.168-.285-.034-.856.151-.755a2.607,2.607,0,0,0,.99.252c.319,0,.52-.151.52-.336,0-.168-.151-.3-.721-.721a1.3,1.3,0,0,1-.637-1.074A1.547,1.547,0,0,1,53.617,13.2Z" transform="translate(-42.931 -11.053)" fill="#373535"/>
      <path id="Path_309" data-name="Path 309" d="M73.317,13.2a1.458,1.458,0,0,1,.939.319c-.017.268-.218.721-.554.587a1.4,1.4,0,0,0-.486-.084c-.252,0-.486.117-.486.352,0,.185.134.319.772.772a1.249,1.249,0,0,1,.637,1.057,1.632,1.632,0,0,1-1.812,1.459,1.343,1.343,0,0,1-1.007-.369c-.168-.285-.034-.856.151-.755a2.607,2.607,0,0,0,.99.252c.319,0,.52-.151.52-.336,0-.168-.151-.3-.721-.721a1.3,1.3,0,0,1-.637-1.074A1.547,1.547,0,0,1,73.317,13.2Z" transform="translate(-59.326 -11.053)" fill="#373535"/>
      <path id="Path_310" data-name="Path 310" d="M93.843,16.689c.47,0,1.325-.822,1.56-2.4.017-.1.017-.117.034-.218a1.321,1.321,0,0,0-.386-.067,1.178,1.178,0,0,0-1.04.554,2.731,2.731,0,0,0-.486,1.527c.017.386.117.6.319.6ZM92.3,16.253a3.3,3.3,0,0,1,.906-2.265,2.7,2.7,0,0,1,2.047-.788,9.3,9.3,0,0,1,1.443.218c-.1.419-.319,2.013-.436,2.936a7.279,7.279,0,0,0-.05,1.141,3.573,3.573,0,0,1-1.074.168c-.084,0-.1-.386-.084-.772a3.605,3.605,0,0,0,.034-.386,2.316,2.316,0,0,1-1.879,1.141c-.537.017-.906-.453-.906-1.392Z" transform="translate(-76.85 -11.053)" fill="#373535"/>
      <path id="Path_311" data-name="Path 311" d="M122.911,14.275a2.182,2.182,0,0,1,1.812-1.241c.688,0,.906.637.772,1.527-.067.419-.185,1.023-.252,1.577a6.742,6.742,0,0,0-.1,1.174,4.263,4.263,0,0,1-1.141.168,2.092,2.092,0,0,1,.017-1.074c.084-.453.235-1.292.319-1.778.05-.285.034-.621-.235-.621-.352,0-1.191.57-1.61,2.885a.485.485,0,0,1-.218.369,2.323,2.323,0,0,1-1.074.168c.117-.587.3-1.778.436-2.667a9.646,9.646,0,0,0,.151-1.527c.168-.05,1.023-.235,1.107-.235.1,0,.117.3.034,1.007-.017.067-.017.168-.034.235h.017v.034Z" transform="translate(-100.902 -10.886)" fill="#373535"/>
      <path id="Path_312" data-name="Path 312" d="M152.41,6.02c.419,0,1.275-.788,1.51-2.181.017-.084.034-.218.05-.3a.731.731,0,0,0-.554-.185c-.973,0-1.392,1.157-1.392,2,.017.436.168.671.386.671Zm-.621.99c-.621,0-.99-.554-.99-1.476a2.737,2.737,0,0,1,2.6-2.969,1.553,1.553,0,0,1,.7.168c.084-.436.285-1.795.3-2.2A8.308,8.308,0,0,1,155.514.4c.1,0,.134.1.1.352-.235,1.443-.637,4.194-.721,4.8a9.678,9.678,0,0,0-.05,1.308,3.6,3.6,0,0,1-1.09.168c-.067,0-.1-.436-.084-.839.017-.117.034-.3.034-.336a2.29,2.29,0,0,1-1.912,1.157Z" transform="translate(-125.537 -0.4)" fill="#373535"/>
      <path id="Path_313" data-name="Path 313" d="M182.11,14.492c.5-1.124,1.107-1.376,1.51-1.376a.719.719,0,0,1,.4.168,2.116,2.116,0,0,1-.436,1.191,1.027,1.027,0,0,0-.419-.117c-.319,0-.973.5-1.376,2.684-.034.185-.084.252-.185.3a4,4,0,0,1-1.107.185c.151-.788.386-2.382.486-3.321a4.966,4.966,0,0,0,.017-.856,5.336,5.336,0,0,1,1.057-.252c.084,0,.151.52.017,1.376h.034v.017Z" transform="translate(-150.254 -10.97)" fill="#373535"/>
      <path id="Path_314" data-name="Path 314" d="M202.543,16.689c.47,0,1.325-.822,1.56-2.4.017-.1.017-.117.034-.218a1.321,1.321,0,0,0-.386-.067,1.178,1.178,0,0,0-1.04.554,2.731,2.731,0,0,0-.486,1.527c.017.386.117.6.319.6ZM201,16.253a3.3,3.3,0,0,1,.906-2.265,2.7,2.7,0,0,1,2.047-.788,9.3,9.3,0,0,1,1.443.218c-.1.419-.319,2.013-.436,2.936a7.277,7.277,0,0,0-.05,1.141,3.573,3.573,0,0,1-1.074.168c-.084,0-.1-.386-.084-.772a3.605,3.605,0,0,0,.034-.386,2.316,2.316,0,0,1-1.879,1.141c-.537.017-.906-.453-.906-1.392Z" transform="translate(-167.315 -11.053)" fill="#373535"/>
    </g>
    <g id="Group_198" data-name="Group 198" transform="translate(0.9 0.2)">
      <path id="Path_315" data-name="Path 315" d="M71.446,17.7c.319,3.674-5.469,7.18-12.934,7.817s-13.756-1.828-14.074-5.5,5.469-7.18,12.934-7.817c7.448-.637,13.756,1.812,14.074,5.5" transform="translate(-37.124 -10.103)" fill="#bbe6fb"/>
      <path id="Path_316" data-name="Path 316" d="M77.859,15.192A23,23,0,0,0,69.2,17.339a7.266,7.266,0,0,0-.4,2.349c0,4.362,3.942,7.9,8.807,7.9s8.824-3.523,8.824-7.9a7.3,7.3,0,0,0-1.09-3.808,58.025,58.025,0,0,0-7.482-.688" transform="translate(-57.41 -12.676)" fill="#fff"/>
      <path id="Path_317" data-name="Path 317" d="M86.2,15.158c-1.577-.1-4.294.721-6.559,1.543a6.542,6.542,0,0,0-.537,2.634,7.218,7.218,0,0,0,7.129,6.928,7.422,7.422,0,0,0,7.129-6.928,5.922,5.922,0,0,0-.939-3.422c-2.332-.4-4.814-.654-6.224-.755" transform="translate(-65.982 -12.642)" fill="#fff"/>
      <path id="Path_318" data-name="Path 318" d="M91.557,19.086a4.481,4.481,0,0,1,.772-.99,2.2,2.2,0,0,1-.1-.453A.77.77,0,0,1,93,16.872a.784.784,0,0,1,.285.05,5.641,5.641,0,0,1,4.7-1.023c.151.034.3.084.453.117a6.711,6.711,0,0,0-4.882,1.409,2.2,2.2,0,0,1,.151.47c0,.436-.285.537-.7.537a.852.852,0,0,1-.285-.05,7.661,7.661,0,0,0-.822,1.61,6.257,6.257,0,0,0,2.2,1.191c0-.034.034-.084.034-.117a2.429,2.429,0,0,1,2.432-2.349,2.345,2.345,0,0,1,2.315,1.946,5.5,5.5,0,0,0,1.56-1.191,1.361,1.361,0,0,1-.2-.637.709.709,0,0,1,.7-.7.629.629,0,0,1,.168.017,6.1,6.1,0,0,0,.486-1.409c-2.03-1.51-5.955-1.292-5.955-1.292a12.582,12.582,0,0,0-5.234.872,6.39,6.39,0,0,0,1.157,2.768" transform="translate(-75.386 -12.879)" fill="#373535"/>
      <path id="Path_319" data-name="Path 319" d="M143.615,25.211a1.248,1.248,0,0,1,.285.352c.185.336-.185.654-.587.654a.286.286,0,0,1-.117-.017,7.469,7.469,0,0,1-1.9,2.013,5.747,5.747,0,0,1,2.818,1.241,8.429,8.429,0,0,0,1.007-3.774,2.7,2.7,0,0,0-1.057-2.181,7.349,7.349,0,0,1-.453,1.711" transform="translate(-117.748 -19.591)" fill="#373535"/>
      <path id="Path_320" data-name="Path 320" d="M99.2,49.031a5.846,5.846,0,0,1,2.03-2.365,4.486,4.486,0,0,1-.369-.755,5.819,5.819,0,0,1-2.55-1.61c0,.017-.017.05-.017.067a4.922,4.922,0,0,0-.084,1.711,1.027,1.027,0,0,1,.839,1.007,1.63,1.63,0,0,1-.47.923,4.749,4.749,0,0,0,.621,1.023" transform="translate(-81.854 -36.902)" fill="#373535"/>
      <path id="Path_321" data-name="Path 321" d="M83.26,30.112a7.5,7.5,0,0,1-.973-1.761c-.05,0-.1.017-.151.017-.57,0-1.157-.47-1.023-1.023a1.016,1.016,0,0,1,.621-.671,6.81,6.81,0,0,1,.05-2.181c.034-.185.134-.268.185-.453a6.015,6.015,0,0,1-1.023-3.3V20.6A2.926,2.926,0,0,0,79.1,23.267a7.6,7.6,0,0,0,4.16,6.861v-.017" transform="translate(-65.982 -17.178)" fill="#373535"/>
      <path id="Path_322" data-name="Path 322" d="M112.6,53.4a2.363,2.363,0,0,1-2.214,1.577,2.25,2.25,0,0,1-1.443-.5A6.711,6.711,0,0,0,107,57.225a4.572,4.572,0,0,0,.486.5,8.823,8.823,0,0,0,2,0,7.008,7.008,0,0,0,6.006-3.07A6.325,6.325,0,0,0,112.6,53.4" transform="translate(-89.201 -44.476)" fill="#373535"/>
      <path id="Path_323" data-name="Path 323" d="M91.324,20.836a6.088,6.088,0,0,1,.721-1.191.76.76,0,0,1-.05-.268.77.77,0,0,1,.772-.772.784.784,0,0,1,.285.05,5.642,5.642,0,0,1,4.7-1.023c.151.034.3.084.453.117a6.251,6.251,0,0,0-4.714,1.325.979.979,0,0,1,.067.3.77.77,0,0,1-.772.772.852.852,0,0,1-.285-.05,5.064,5.064,0,0,0-.7,1.292,5.82,5.82,0,0,0,2.214,1.493v-.117a2.349,2.349,0,0,1,4.664-.4A6.022,6.022,0,0,0,100.2,20.97a.671.671,0,0,1-.168-.436.709.709,0,0,1,.7-.7.629.629,0,0,1,.168.017,6.1,6.1,0,0,0,.486-1.409c-2.03-1.51-5.955-1.292-5.955-1.292a12.582,12.582,0,0,0-5.234.872,5.928,5.928,0,0,0,1.124,2.818" transform="translate(-75.22 -14.294)" fill="#1287b1"/>
      <path id="Path_324" data-name="Path 324" d="M144.3,26.993a.688.688,0,0,1,.235.52.709.709,0,0,1-.7.7.285.285,0,0,1-.117-.017A5.552,5.552,0,0,1,142,29.912a5.64,5.64,0,0,1,2.751,1.241,7.136,7.136,0,0,0,.906-3.472A2.7,2.7,0,0,0,144.6,25.5a5.491,5.491,0,0,1-.3,1.493" transform="translate(-118.33 -21.256)" fill="#1287b1"/>
      <path id="Path_325" data-name="Path 325" d="M98.967,50.83a5.584,5.584,0,0,1,1.778-2.483,2.058,2.058,0,0,1-.285-.537,5.819,5.819,0,0,1-2.55-1.61c0,.017-.017.05-.017.067a4.922,4.922,0,0,0-.084,1.711,1.021,1.021,0,0,1,.5,1.761,5.528,5.528,0,0,0,.654,1.09" transform="translate(-81.521 -38.483)" fill="#1287b1"/>
      <path id="Path_326" data-name="Path 326" d="M82.927,31.759a5.676,5.676,0,0,1-1.04-1.409c-.05,0-.1.017-.151.017a1.017,1.017,0,0,1-1.023-1.023,1.036,1.036,0,0,1,.57-.923,5.367,5.367,0,0,1,.1-1.929c.034-.185.1-.369.151-.554a5.66,5.66,0,0,1-.99-3.2V22.6A2.926,2.926,0,0,0,78.7,25.267a7.12,7.12,0,0,0,4.211,6.509c.017,0,.017,0,.017-.017" transform="translate(-65.649 -18.842)" fill="#1287b1"/>
      <path id="Path_327" data-name="Path 327" d="M112.786,55.4a2.363,2.363,0,0,1-2.214,1.577,2.25,2.25,0,0,1-1.443-.5,5.814,5.814,0,0,0-1.829,2.5c.168.185.352.352.537.52a7.02,7.02,0,0,0,1.795.235,7.137,7.137,0,0,0,5.989-3.254,5.715,5.715,0,0,0-2.835-1.074" transform="translate(-89.451 -46.14)" fill="#1287b1"/>
      <path id="Path_328" data-name="Path 328" d="M105.712,28.913l2.164-.52-2.181-.117,1.778-1.342-2.013.721,1.359-1.9-1.9,1.258.654-2.214-1.292,1.829-.034-2.315L103.4,26.38l-.7-2.08.034,2.449-1.225-2.2.671,2.332-2-1.443,1.56,1.963L99.254,26.5,101.2,27.94l-2.5.084,2.567.654-2.567.554,2.533.185L99.1,30.775l2.2-.788-1.527,1.929,1.929-1.56-.688,2.583,1.493-2.114-.2,2.483.839-2.265.721,2.365.168-2.382,1.074,2.03-.637-2.315,1.946,1.51-1.258-1.929,2.147.839-1.644-1.61,2.2.168-2.147-.805Z" transform="translate(-82.294 -20.257)" fill="#fff"/>
      <path id="Path_329" data-name="Path 329" d="M2.8,15.33C9.527,8.6,14.895,6.523,19.777,5.583c.637-.117.772-1.543.772-1.543s.084,1.04.537,1.174,1.04-1.627,1.04-1.627-.537,1.577,0,1.678c.537.084,1.543-1.543,1.543-1.543s-.4,1.392-.134,1.493c.268.084,1.627-2.03,1.627-2.03s-.805,1.392-.05,1.543c.772.134,1.9-.956,1.9-.956s-.872.99-.486,1.141c1.678.587,3.02-1.577,3.02-1.577a7.534,7.534,0,0,1-1.124,2c1.761.453,3.07-2.2,3.07-2.2l-1.308,2.65C30.848,6.12,33.549,3,33.549,3a12.405,12.405,0,0,1-2.214,2.936c.453.369,2.08-1.09,2.08-1.09s-1.308,1.627-.805,1.711C33.331,7.143,36,3.537,36,3.537a18.256,18.256,0,0,1-2.567,3.791c1.275.654,4.462-3.456,4.462-3.456s-.084,1.308-2.4,3.389c1.711-.218,3.925-3.472,3.925-3.472a10.773,10.773,0,0,1-2.751,4.16c1.678-.168,4.378-4.328,4.378-4.328a11.66,11.66,0,0,1-3.154,4.563C40.242,8.7,43.631,5.2,43.631,5.2A10.4,10.4,0,0,1,40.561,8.7c1.946.738,4.613-2.332,4.613-2.332s-2.667,4.11-6.911,3.925c-1.392-.067-5.6-4.227-14.628-3.892-11.944.436-14.46,5.5-20.835,8.924" transform="translate(-2.481 -2.53)" fill="rgba(55,53,53,0.35)"/>
      <path id="Path_330" data-name="Path 330" d="M4.4,12.5C11.127,5.769,16.495,3.689,21.377,2.75c.637-.117.772-1.543.772-1.543s.084,1.04.537,1.174S23.725.754,23.725.754s-.537,1.577,0,1.678c.537.084,1.543-1.543,1.543-1.543s-.4,1.392-.134,1.493c.268.084,1.627-2.03,1.627-2.03s-.805,1.392-.05,1.543c.772.134,1.9-.956,1.9-.956s-.872.99-.486,1.141C29.8,2.666,31.14.5,31.14.5a7.534,7.534,0,0,1-1.124,2c1.761.453,3.07-2.2,3.07-2.2l-1.308,2.65C32.448,3.32,35.166.2,35.166.2a12.405,12.405,0,0,1-2.214,2.936c.453.319,2.08-1.124,2.08-1.124s-1.308,1.627-.805,1.711C34.948,4.31,37.615.7,37.615.7a18.716,18.716,0,0,1-2.583,3.791c1.275.637,4.479-3.472,4.479-3.472s-.084,1.308-2.4,3.389C38.823,4.193,41.037.938,41.037.938A10.773,10.773,0,0,1,38.286,5.1C39.963,4.931,42.664.77,42.664.77a11.66,11.66,0,0,1-3.154,4.563c2.349.52,5.737-2.986,5.737-2.986a10.4,10.4,0,0,1-3.07,3.506c1.946.738,4.613-2.332,4.613-2.332s-2.667,4.11-6.911,3.925c-1.392-.067-5.6-4.227-14.628-3.892C13.308,4.008,10.775,9.057,4.4,12.5" transform="translate(-3.813 -0.2)" fill="#373535"/>
      <path id="Path_331" data-name="Path 331" d="M1.8,53.219c3.556,1.778,6.811-.268,10.9.889a26.887,26.887,0,0,0,12.061,1.208c5.15-.738,9.545-2.986,11.659-6.978.654-1.778,3.321.4,3.321.4s-1.946-.805-1.9-.436c.05.386,2.919,1.711,2.919,1.711s-2.6-.805-2.432-.2c.151.6,3.254,3.053,3.254,3.053s-3.54-2.65-3.825-2.281c-.3.369,1.493,1.828,1.493,1.828s-2.952-1.828-3.993-1.292c-.755.386,3.07,2.885,3.07,2.885s-2.483-1.9-3.07-1.392,2.8,4.563,2.8,4.563-3.858-4.16-4.244-3.959,1.057,2.2,1.057,2.2-1.879-2.08-2.4-1.728c-.52.369,2.718,5.754,2.718,5.754s-3.506-5.519-4.965-4.6c2.265,4.982,1.426,5.687,1.426,5.687s-.285-5.083-3.12-4.949c-1.426.067.671,3.791.671,3.791s-1.929-3.405-3.221-3.338c2.365,4.5,1.527,6.307,1.527,6.307A6.773,6.773,0,0,0,24.7,56.373c1.225,1.09-.772,5.972-.772,5.972s1.745-7.2-1.292-5.821c-.486.218-.034,3.59-.034,3.59s-.6-3.858-1.527-3.657c-.537.117-3.389,5.351-3.389,5.351s2.332-5.653,1.627-5.418c-.52.168-1.493,2.5-1.493,2.5s.47-2.3,0-2.432-3.12,2.432-3.12,2.432,1.963-2.3,1.627-2.785a1.351,1.351,0,0,0-1.828-.47,8.467,8.467,0,0,0-2.432,2.3S13.459,56,13.224,55.3c-.386-1.157-4.4,2.231-4.4,2.231s2.365-2.231,1.828-2.718c-.537-.47-3.489-.336-4.4-.336-2.7.034-3.64-.6-4.462-1.258" transform="translate(-1.649 -39.682)" fill="rgba(55,53,53,0.35)"/>
      <path id="Path_332" data-name="Path 332" d="M.9,50.819c3.556,1.778,6.811-.268,10.9.889a26.887,26.887,0,0,0,12.061,1.208c5.15-.738,9.545-2.986,11.659-6.978.654-1.778,3.321.4,3.321.4s-1.946-.805-1.9-.436c.05.386,2.919,1.711,2.919,1.711s-2.6-.805-2.432-.2c.151.6,3.254,3.053,3.254,3.053s-3.506-2.667-3.791-2.3S38.393,50,38.393,50,35.44,48.169,34.4,48.705c-.755.386,3.07,2.885,3.07,2.885S34.987,49.7,34.4,50.2s2.8,4.563,2.8,4.563S33.36,50.6,32.974,50.8,34.031,53,34.031,53s-1.912-2.063-2.432-1.711c-.52.369,2.7,5.754,2.7,5.754s-3.506-5.536-4.949-4.613c2.281,5,1.426,5.7,1.426,5.7s-.285-5.083-3.12-4.949c-1.426.067.671,3.791.671,3.791s-1.912-3.389-3.2-3.321c2.365,4.5,1.527,6.307,1.527,6.307a6.773,6.773,0,0,0-2.818-5.972c1.225,1.09-.772,5.972-.772,5.972s1.745-7.2-1.292-5.821c-.486.218-.034,3.59-.034,3.59s-.6-3.858-1.527-3.657c-.537.117-3.389,5.351-3.389,5.351s2.332-5.653,1.627-5.418c-.52.168-1.493,2.5-1.493,2.5s.47-2.3,0-2.432-3.12,2.432-3.12,2.432,1.963-2.3,1.627-2.785a1.351,1.351,0,0,0-1.828-.47,8.467,8.467,0,0,0-2.432,2.3s1.392-1.929,1.157-2.634c-.386-1.157-4.4,2.231-4.4,2.231s2.365-2.231,1.828-2.718c-.537-.47-3.489-.336-4.4-.336-2.734.017-3.674-.621-4.5-1.275" transform="translate(-0.9 -37.684)" fill="#373535"/>
    </g>
  </g>
</svg>
