<svg id="cordova" xmlns="http://www.w3.org/2000/svg" width="34.45" height="32.885" viewBox="0 0 34.45 32.885">
  <path id="Path_369" data-name="Path 369" d="M31.318,32.884H25.74l.391-4.7h-2.74L23,32.884H11.451l-.391-4.7H8.319l.391,4.7H3.132L0,12.527,7.83,0H26.621l7.83,12.527ZM25.055,6.264H20.021l.336,2.349H14.093l.336-2.349H9.4L6.264,12.527,7.83,25.055H26.621l1.566-12.527ZM22.314,20.9c-.432,0-.783-1.3-.783-2.913s.351-2.913.783-2.913.783,1.3.783,2.913S22.747,20.9,22.314,20.9Zm-9.885.243c-.432,0-.783-1.3-.783-2.913s.351-2.913.783-2.913.783,1.3.783,2.913S12.862,21.14,12.43,21.14Z" fill="#444"/>
</svg>
