<svg xmlns="http://www.w3.org/2000/svg" width="34.999" height="29" viewBox="0 0 34.999 29">
  <path id="Subtraction_1" data-name="Subtraction 1" d="M32,29.5H4A3.5,3.5,0,0,1,.5,26V4A3.5,3.5,0,0,1,4,.5H32A3.5,3.5,0,0,1,35.5,4V26A3.5,3.5,0,0,1,32,29.5ZM14.422,9.862a4.851,4.851,0,0,0-2.492.625,4.115,4.115,0,0,0-1.63,1.8,6.218,6.218,0,0,0-.568,2.731,5.622,5.622,0,0,0,1.156,3.8,4.209,4.209,0,0,0,3.335,1.323,7.115,7.115,0,0,0,2.749-.513V17.847a7.964,7.964,0,0,1-2.55.526c-1.665,0-2.509-1.125-2.509-3.343a4.2,4.2,0,0,1,.656-2.5,2.168,2.168,0,0,1,1.853-.9,3.374,3.374,0,0,1,1.114.2,11.3,11.3,0,0,1,1.128.465l.684-1.724A6.765,6.765,0,0,0,14.422,9.862Zm6.8,6.3h1.128L24.73,20h2.352c-.457-.657-1.418-2.081-2.939-4.354a3.223,3.223,0,0,0,1.373-1.076A2.663,2.663,0,0,0,26,13a2.657,2.657,0,0,0-.978-2.252,5,5,0,0,0-3.014-.742H19.1V20h2.12V16.166Zm.683-1.723h-.683v-2.7h.643a2.978,2.978,0,0,1,1.514.3,1.1,1.1,0,0,1,.489,1.012,1.2,1.2,0,0,1-.479,1.053A2.626,2.626,0,0,1,21.9,14.442Z" transform="translate(-0.5 -0.5)" fill="#00aaf2"/>
</svg>
