<svg id="firebase" xmlns="http://www.w3.org/2000/svg" width="27.396" height="37.609" viewBox="0 0 27.396 37.609">
  <path id="Path_189" data-name="Path 189" d="M0,30.357l.228-.319L11,9.6l.023-.216L6.273.468A.881.881,0,0,0,4.625.746Z" transform="translate(0 0)" fill="#ffc24a"/>
  <g id="Group_187" data-name="Group 187" transform="translate(0.134 0.14)">
    <path id="Path_190" data-name="Path 190" d="M1.253,31.275l.172-.336L12.082,10.718,7.347,1.763a.8.8,0,0,0-1.522.277Z" transform="translate(-1.253 -1.301)" fill="#ffa712"/>
    <path id="Path_191" data-name="Path 191" d="M1.253,31.275l.172-.336L12.082,10.718,7.347,1.763a.8.8,0,0,0-1.522.277Z" transform="translate(-1.253 -1.301)"/>
  </g>
  <path id="Path_192" data-name="Path 192" d="M105.916,60.076l3.535-3.62-3.536-6.75a.911.911,0,0,0-1.605,0l-1.889,3.6v.307Z" transform="translate(-91.434 -43.945)" fill="#f4bd62"/>
  <g id="Group_188" data-name="Group 188" transform="translate(11.021 5.417)">
    <path id="Path_193" data-name="Path 193" d="M106.137,61.062l3.437-3.52L106.137,51a.792.792,0,0,0-1.442-.063l-1.9,3.659-.057.187Z" transform="translate(-102.739 -50.499)" fill="#ffa50e"/>
    <path id="Path_194" data-name="Path 194" d="M106.137,61.062l3.437-3.52L106.137,51a.792.792,0,0,0-1.442-.063l-1.9,3.659-.057.187Z" transform="translate(-102.739 -50.499)"/>
  </g>
  <path id="Path_195" data-name="Path 195" d="M0,108.118l.1-.1.375-.152L14.26,94.131l.175-.475L11,87.1Z" transform="translate(0 -77.761)" fill="#f6820c"/>
  <path id="Path_196" data-name="Path 196" d="M14.924,101.137,27.4,94.181,23.834,72.245a.852.852,0,0,0-1.445-.466L0,94.213l12.4,6.924a2.588,2.588,0,0,0,2.522,0" transform="translate(0 -63.856)" fill="#fde068"/>
  <path id="Path_197" data-name="Path 197" d="M28.435,94.993,24.9,73.224a.749.749,0,0,0-1.3-.475L1.289,95.04,13.554,101.9a2.568,2.568,0,0,0,2.5,0Z" transform="translate(-1.151 -64.726)" fill="#fcca3f"/>
  <path id="Path_198" data-name="Path 198" d="M14.923,287.891a2.588,2.588,0,0,1-2.522,0L.1,281.066l-.1.105L12.4,288.1a2.588,2.588,0,0,0,2.522,0L27.4,281.14l-.031-.188Z" transform="translate(0 -250.814)" fill="#eeab37"/>
</svg>
