<svg xmlns="http://www.w3.org/2000/svg" width="26.598" height="30.183" viewBox="0 0 26.598 30.183">
  <path id="html5" d="M30.872,0a.454.454,0,0,0-.459.5l2.339,26.232a.785.785,0,0,0,.531.637l9.924,2.756a2.152,2.152,0,0,0,.972,0l9.954-2.76a.785.785,0,0,0,.531-.637L57.006.5a.454.454,0,0,0-.46-.5ZM52.025,6.016l-.085.951-.062.688c-.025.276-.06.671-.079.878s-.036.376-.039.376H39.488a.454.454,0,0,0-.459.5l.216,2.416a.563.563,0,0,0,.549.5H51.012a.4.4,0,0,1,.409.448c-.023.246-.061.674-.086.951l-.7,7.79c-.025.276-.056.629-.07.784s-.244.343-.511.417L44.2,24.346l-.494.136s-.226-.059-.494-.133l-5.87-1.629a.785.785,0,0,1-.531-.637l-.378-4.241a.454.454,0,0,1,.46-.5h2.343a.564.564,0,0,1,.549.5l.148,1.66a.778.778,0,0,0,.532.634l2.746.742.489.132.489-.132,2.751-.743a.779.779,0,0,0,.532-.634l.3-3.326a.454.454,0,0,0-.459-.5H36.739a.563.563,0,0,1-.549-.5l-.732-8.2-.085-.951a.432.432,0,0,1,.464-.448H51.561A.432.432,0,0,1,52.025,6.016Z" transform="translate(-30.41)" fill="#dd512a"/>
</svg>
