<svg id="invision" xmlns="http://www.w3.org/2000/svg" width="27.238" height="27.238" viewBox="0 0 27.238 27.238">
  <path id="Path_135" data-name="Path 135" d="M24.769,0H2.469A2.469,2.469,0,0,0,0,2.469v22.3a2.469,2.469,0,0,0,2.469,2.469h22.3a2.469,2.469,0,0,0,2.469-2.469V2.469A2.469,2.469,0,0,0,24.769,0" fill="#dc395f"/>
  <path id="Path_136" data-name="Path 136" d="M71.582,53.007a1.64,1.64,0,1,0-1.664-1.64,1.645,1.645,0,0,0,1.664,1.64" transform="translate(-62.479 -44.437)" fill="#fff"/>
  <path id="Path_137" data-name="Path 137" d="M47.375,100.265a5.636,5.636,0,0,0-.147,1.232,2.2,2.2,0,0,0,2.447,2.4,3.894,3.894,0,0,0,3.3-2.143l-.492,1.974h2.74l1.566-6.282c.391-1.591,1.15-2.416,2.3-2.416a1.369,1.369,0,0,1,1.468,1.493,2.933,2.933,0,0,1-.122.881l-.808,2.887a4.34,4.34,0,0,0-.171,1.223,2.233,2.233,0,0,0,2.5,2.373c1.444,0,2.594-.929,3.23-3.156l-1.077-.416c-.538,1.492-1,1.762-1.37,1.762s-.563-.245-.563-.734a3.243,3.243,0,0,1,.122-.759l.783-2.813a6.206,6.206,0,0,0,.269-1.784c0-2.1-1.273-3.2-2.814-3.2-1.444,0-2.912,1.3-3.646,2.673L57.43,93H53.246l-.587,2.167h1.958l-1.205,4.826a3.069,3.069,0,0,1-2.9,2.09c-.358-.081-.587-.217-.587-.682a4.614,4.614,0,0,1,.171-1.12L51.926,93H47.277l-.587,2.167h1.933l-1.248,5.1" transform="translate(-41.722 -82.915)" fill="#fff"/>
</svg>
