<svg xmlns="http://www.w3.org/2000/svg" width="31.983" height="30.829" viewBox="0 0 31.983 30.829">
  <path id="jquery-icon" d="M2.144,7.7c-2.83,4.07-2.48,9.364-.316,13.7.05.1.105.206.158.308l.1.195c.02.038.042.075.063.112.037.07.075.134.113.2l.207.354.118.194.24.375.1.158c.113.168.228.336.347.5l.068.092q.155.213.316.42l.12.152.292.36.112.134c.133.157.27.313.407.465a.309.309,0,0,1,.024.026q.2.221.414.436l.133.134.33.324.135.13q.223.21.453.412l.5.42.17.136.343.268.183.14.385.276.18.127c.123.085.248.166.374.247l.162.108q.29.184.585.358l.162.1.44.246c.08.043.162.084.243.125l.314.163.073.035.13.062.5.23.1.047q.288.126.581.241l.14.056.548.2.07.024q.3.1.61.2l.148.044a5.132,5.132,0,0,0,.63.178c13.694,2.5,17.67-8.23,17.67-8.23-3.34,4.352-9.27,5.5-14.9,4.222-.213-.048-.42-.114-.627-.176l-.156-.047q-.3-.093-.6-.2l-.083-.03q-.267-.095-.532-.2l-.15-.06q-.29-.114-.575-.24l-.115-.05-.485-.226-.14-.067c-.126-.06-.25-.127-.375-.2l-.25-.13c-.152-.08-.3-.166-.45-.252l-.152-.085q-.3-.174-.585-.358c-.053-.034-.105-.07-.158-.105l-.416-.277a1.3,1.3,0,0,1-.134-.094l-.394-.285-.175-.132-.355-.278L9.351,23.3l-.442-.373q-.024-.021-.05-.04l-.465-.423-.13-.126-.332-.33-.13-.13c-.14-.143-.276-.287-.4-.434a.209.209,0,0,1-.02-.022q-.212-.233-.416-.474l-.1-.13-.3-.37-.1-.137-.346-.46C2.982,15.6,1.86,9.722,4.354,4.9m6.58-.625a9.846,9.846,0,0,0-.34,10.008A13.06,13.06,0,0,0,11.5,15.8a7.18,7.18,0,0,0,1.054,1.316c.148.163.3.32.46.477l.12.12q.229.224.469.436c.007,0,.012.012.02.017.182.16.366.3.553.458l.124.1q.281.217.574.419l.017.012c.086.06.174.115.262.173.042.027.082.056.124.082q.21.135.425.26l.06.035.376.2c.044.025.1.046.134.07l.263.136c.013.007.027.012.04.018q.271.135.548.255l.12.05q.223.095.45.182l.192.07q.205.075.413.143l.187.06a4.971,4.971,0,0,0,.6.173c10.573,1.752,13.014-6.4,13.014-6.4-2.2,3.17-6.46,4.68-11.008,3.5q-.3-.079-.6-.173c-.06-.018-.12-.038-.18-.058l-.42-.144-.2-.07q-.226-.087-.45-.182l-.122-.05q-.279-.121-.552-.256l-.277-.14L18.128,17q-.176-.1-.35-.2l-.084-.047q-.215-.126-.424-.26c-.043-.027-.085-.057-.128-.085l-.275-.182q-.291-.2-.57-.418l-.13-.1a12.692,12.692,0,0,1-4.318-6.154,9.547,9.547,0,0,1,.745-7.66m5.732-.183a6.166,6.166,0,0,0-.488,5.945,8.413,8.413,0,0,0,4.806,4.5l.262.1.116.036.377.1c5.838,1.128,7.42-3,7.843-3.6-1.387,2-3.718,2.476-6.578,1.782-.226-.055-.474-.137-.692-.214a8.46,8.46,0,0,1-.822-.341,8.5,8.5,0,0,1-1.441-.879C19.15,7.2,17.56,3.486,19.23.47" transform="translate(-0.113 -0.47)" fill="#0868ac"/>
</svg>
