<svg xmlns="http://www.w3.org/2000/svg" width="33.801" height="38.397" viewBox="0 0 33.801 38.397">
  <g id="mocha" transform="translate(0 0)">
    <path id="Path_199" data-name="Path 199" d="M32.77,29.545,17.931,38.119a2.048,2.048,0,0,1-2.061,0L1.031,29.545A2.06,2.06,0,0,1,0,27.773V10.625A2.035,2.035,0,0,1,1.031,8.852L15.87.279a2.048,2.048,0,0,1,2.061,0L32.77,8.852A2.06,2.06,0,0,1,33.8,10.625V27.773a2.152,2.152,0,0,1-1.031,1.772Z" fill="#8d6748"/>
    <path id="Path_200" data-name="Path 200" d="M31.919,19.747a1.693,1.693,0,0,0-.886.247l-12.82,7.4a1.749,1.749,0,0,0-.886,1.525v14.8a1.725,1.725,0,0,0,.886,1.525l12.82,7.4a1.712,1.712,0,0,0,1.772,0l12.82-7.4a1.749,1.749,0,0,0,.886-1.525v-14.8a1.725,1.725,0,0,0-.886-1.525l-12.82-7.4a1.693,1.693,0,0,0-.886-.247Zm0,.618h0a1.165,1.165,0,0,1,.577.165l12.82,7.4a1.186,1.186,0,0,1,.577,1.01v14.8a1.185,1.185,0,0,1-.577,1.01l-12.82,7.4a1.165,1.165,0,0,1-.577.165,1.108,1.108,0,0,1-.577-.165l-12.82-7.4a1.185,1.185,0,0,1-.577-1.01v-14.8a1.186,1.186,0,0,1,.577-1.01l12.82-7.4a1.228,1.228,0,0,1,.577-.165Zm-1.185,12.9h1.731a.187.187,0,0,0,.144-.062c1.031-1.154,1.134-3.566,1.134-4.287a.207.207,0,0,0-.206-.206H29.662a.207.207,0,0,0-.206.206c0,.7.1,3.112,1.134,4.287A.187.187,0,0,0,30.734,33.267Zm-.474-3.916H32.98a.207.207,0,0,1,.206.206,5.5,5.5,0,0,1-.8,3.05.273.273,0,0,1-.165.062H31a.187.187,0,0,1-.144-.062,5.636,5.636,0,0,1-.8-3.05A.207.207,0,0,1,30.26,29.351ZM31.991,28.3a.859.859,0,0,0,.288-1.216c-.268-.412-.391-.763-.288-.907-.268.33-.721.68-.227,1.422A1.162,1.162,0,0,1,31.991,28.3Zm-.824.062a.58.58,0,0,0,.186-.824c-.186-.268-.268-.515-.186-.6-.186.227-.474.453-.144.969A.832.832,0,0,1,31.167,28.362Zm-.062,4.06h1.031a.178.178,0,0,0,.124-.062,3.308,3.308,0,0,0,.6-1.608s-.021.186-.515.371a5.045,5.045,0,0,1-1.876.082,2.955,2.955,0,0,0,.515,1.154A.147.147,0,0,0,31.1,32.422Zm-7.749,5.791V34.091h-.763l-1.257,1.937-1.257-1.937h-.763v4.143h.721V35.287L21.315,37.2h.021l1.3-1.937v2.947Zm4.617-4.04a2.4,2.4,0,0,0-.866-.165,2.027,2.027,0,0,0-.866.165,1.968,1.968,0,0,0-.68.453,2.071,2.071,0,0,0-.453.68,2.263,2.263,0,0,0-.165.824v.021a2.18,2.18,0,0,0,.165.824,1.925,1.925,0,0,0,.433.68,1.968,1.968,0,0,0,.68.453,2.4,2.4,0,0,0,.866.165,2.027,2.027,0,0,0,.866-.165,1.968,1.968,0,0,0,.68-.453,2.071,2.071,0,0,0,.453-.68,2.263,2.263,0,0,0,.165-.824v-.021a2.18,2.18,0,0,0-.165-.824,1.925,1.925,0,0,0-.433-.68A1.968,1.968,0,0,0,27.972,34.174Zm.495,2a1.765,1.765,0,0,1-.1.557,1.7,1.7,0,0,1-.288.453,1.649,1.649,0,0,1-.433.309,1.226,1.226,0,0,1-.557.124,1.29,1.29,0,0,1-.556-.124,1.649,1.649,0,0,1-.433-.309,1.4,1.4,0,0,1-.289-.474,1.789,1.789,0,0,1-.1-.577v-.021a1.768,1.768,0,0,1,.1-.557A1.7,1.7,0,0,1,26.1,35.1a1.65,1.65,0,0,1,.433-.309,1.315,1.315,0,0,1,1.113,0,1.649,1.649,0,0,1,.433.309,1.4,1.4,0,0,1,.288.474,1.786,1.786,0,0,1,.1.577Zm3.05-.618a1.7,1.7,0,0,1,.288-.453,1.654,1.654,0,0,1,.433-.309,1.142,1.142,0,0,1,.536-.124,1.273,1.273,0,0,1,.639.144,2.966,2.966,0,0,1,.515.371l.474-.536a3.587,3.587,0,0,0-.309-.268,1.965,1.965,0,0,0-.35-.206c-.144-.041-.268-.082-.433-.124a4.015,4.015,0,0,0-.515-.041,2.314,2.314,0,0,0-.866.165,1.97,1.97,0,0,0-.68.454,2.378,2.378,0,0,0-.433.68,2.177,2.177,0,0,0-.165.824v.021a2.261,2.261,0,0,0,.165.824,1.923,1.923,0,0,0,.433.68,2.041,2.041,0,0,0,1.484.618,2.533,2.533,0,0,0,.556-.041,1.529,1.529,0,0,0,.433-.144,1.793,1.793,0,0,0,.371-.227,2.346,2.346,0,0,0,.33-.309l-.474-.474a3.873,3.873,0,0,1-.536.392,1.222,1.222,0,0,1-.639.144,1.567,1.567,0,0,1-.536-.124,1.285,1.285,0,0,1-.433-.309,1.4,1.4,0,0,1-.288-.474,1.788,1.788,0,0,1-.1-.577v-.021A1.769,1.769,0,0,1,31.517,35.555Zm4.349-1.463v4.122h.721V36.482h1.979v1.731h.721V34.091h-.721V35.8H36.587V34.091Zm7.914,3.133.412.989h.763l-1.814-4.143h-.66l-1.814,4.143h.742l.433-.989Zm-.969-2.288.7,1.649h-1.4ZM18.8,39.739H45.079v-.227H18.8Zm15.107-7.976c0,.082-.021.144-.021.227H45.079v-.227Zm-4.6,0H18.8v.227H29.332C29.332,31.907,29.312,31.845,29.312,31.762Z" transform="translate(-15.039 -17.139)" fill="#fff"/>
  </g>
</svg>
