<svg xmlns="http://www.w3.org/2000/svg" width="71.365" height="20.333" viewBox="0 0 71.365 20.333">
  <g id="mongodb" transform="translate(0 -0.203)">
    <g id="Group_200" data-name="Group 200" transform="translate(0 0.203)">
      <path id="Path_333" data-name="Path 333" d="M395.12,56.1c-.064.013-.129.155-.129.232-.013.515-.026,1.88-.026,2.807a.1.1,0,0,0,.077.077c.193.013.657.026,1.056.026a2.754,2.754,0,0,0,1.056-.154,1.368,1.368,0,0,0,.682-1.288c0-1.249-.876-1.726-2.176-1.726a2.073,2.073,0,0,0-.541.026Zm3.323,5.756c0-1.275-.94-1.983-2.64-1.983a7.458,7.458,0,0,0-.747.013c-.039.013-.09.039-.09.077,0,.914-.013,2.369.026,2.936a.972.972,0,0,0,.425.7,2.948,2.948,0,0,0,1.12.154,1.758,1.758,0,0,0,1.906-1.893Zm-5.949-6.464c.129,0,.515.039,1.507.039.94,0,1.687-.026,2.6-.026,1.12,0,2.666.4,2.666,2.073a2.019,2.019,0,0,1-1.339,1.8c-.039.013-.039.039,0,.051a2.317,2.317,0,0,1,2.035,2.2,2.7,2.7,0,0,1-1.893,2.511,6.159,6.159,0,0,1-2.4.4c-.657,0-2.421-.077-3.4-.051-.1-.039.09-.5.18-.58a2.4,2.4,0,0,0,.657-.1c.348-.09.386-.193.438-.721.026-.451.026-2.048.026-3.181,0-1.558.013-2.614,0-3.129-.013-.4-.155-.528-.438-.605-.219-.039-.58-.09-.876-.129-.065-.064.154-.5.232-.554Zm-7.43,8.01a2.6,2.6,0,0,0,1.455.348,2.854,2.854,0,0,0,2.06-.734,3.914,3.914,0,0,0,1.159-3.091,3.689,3.689,0,0,0-1.687-3.335,4.556,4.556,0,0,0-2.421-.567,1.928,1.928,0,0,0-.721.09.379.379,0,0,0-.129.206c-.026.258-.026,2.241-.026,3.4,0,1.2,0,2.872.026,3.065a.8.8,0,0,0,.283.618Zm-2.923-8.01c.245,0,1.185.039,1.635.039.811,0,1.391-.039,2.923-.039a4.764,4.764,0,0,1,3.142,1,4.175,4.175,0,0,1,1.429,3.3,4.315,4.315,0,0,1-1.777,3.709,5.955,5.955,0,0,1-3.7,1.043c-.876,0-2.382-.026-3.632-.039h-.013c-.064-.116.1-.567.206-.579a2.048,2.048,0,0,0,.592-.116c.27-.1.322-.245.361-.721.039-.889.026-1.957.026-3.168,0-.863.013-2.55-.013-3.091-.039-.451-.232-.567-.618-.644-.193-.039-.451-.09-.811-.129-.052-.09.18-.489.245-.567Z" transform="translate(-328.597 -47.687)" fill="#8e714e" fill-rule="evenodd"/>
      <path id="Path_334" data-name="Path 334" d="M109.087,82.321a2.592,2.592,0,0,1-.837-.219.393.393,0,0,1-.1-.206c-.026-.451-.026-1.738-.026-2.6a3.036,3.036,0,0,0-.412-1.726,1.758,1.758,0,0,0-1.494-.773,3.444,3.444,0,0,0-1.957.927c-.013.013-.116.1-.1-.039s.026-.425.039-.618a.335.335,0,0,0-.09-.27,8.6,8.6,0,0,1-2,.515c-.309.064-.386.361-.064.464h.013a2.861,2.861,0,0,1,.76.335.4.4,0,0,1,.116.361c.013.966.013,2.447-.026,3.258-.013.322-.1.438-.335.489l.026-.013a5.072,5.072,0,0,1-.541.1.754.754,0,0,0,0,.58c.142,0,.889-.039,1.507-.039.85,0,1.288.039,1.507.039a.838.838,0,0,0,.064-.58,2.39,2.39,0,0,1-.592-.09c-.232-.052-.3-.167-.309-.438-.026-.683-.026-2.125-.026-3.1a.62.62,0,0,1,.154-.477,1.948,1.948,0,0,1,1.2-.438,1.331,1.331,0,0,1,.889.3,1.266,1.266,0,0,1,.412.811c.064.554.039,1.648.039,2.6,0,.515-.039.644-.232.708a2.452,2.452,0,0,1-.592.116.754.754,0,0,0,0,.58c.374,0,.811-.039,1.455-.039.8,0,1.314.039,1.52.039a.9.9,0,0,0,.039-.554Zm3.567-4.919c-.683,0-1.107.528-1.107,1.352s.373,1.8,1.429,1.8a1,1,0,0,0,.67-.257,1.706,1.706,0,0,0,.412-1.185c0-1.069-.528-1.713-1.4-1.713Zm-.09,5.692a1.106,1.106,0,0,0-.554.142c-.541.348-.786.682-.786,1.082a1.139,1.139,0,0,0,.451.927,2.288,2.288,0,0,0,1.545.477c1.314,0,1.893-.708,1.893-1.4a.984.984,0,0,0-.747-.992,5.2,5.2,0,0,0-1.8-.232Zm.09,3.348a2.85,2.85,0,0,1-1.841-.541,1.7,1.7,0,0,1-.683-1.275.986.986,0,0,1,.258-.644,6.828,6.828,0,0,1,1.185-.953c.026-.013.039-.026.039-.052a.085.085,0,0,0-.051-.064,1.225,1.225,0,0,1-.837-.811v-.026c-.013-.077-.039-.154.077-.232.09-.064.219-.142.36-.232a5.286,5.286,0,0,0,.592-.386.094.094,0,0,0,.026-.077.085.085,0,0,0-.052-.064,1.878,1.878,0,0,1-1.352-1.97,1.955,1.955,0,0,1,.824-1.623,3.785,3.785,0,0,1,1.854-.631h.039a3.947,3.947,0,0,1,1.416.309,2.384,2.384,0,0,0,.837.129,1.115,1.115,0,0,0,.9-.335.7.7,0,0,1,.052.257.973.973,0,0,1-.167.592.732.732,0,0,1-.567.245H115.5a2.865,2.865,0,0,1-.335-.052l-.051.026c-.013.026,0,.051.013.09l.013.026a4.762,4.762,0,0,1,.077.554,2.086,2.086,0,0,1-.876,1.867,2.965,2.965,0,0,1-1.507.58,1.613,1.613,0,0,0-.18.013c-.064,0-.155.013-.167.013h-.013c-.1.026-.36.154-.36.373,0,.193.116.425.67.464.116.013.232.013.361.026a11.306,11.306,0,0,1,2.073.257,1.443,1.443,0,0,1,.966,1.378,2.827,2.827,0,0,1-1.816,2.4,4.143,4.143,0,0,1-1.713.373Zm7.34-8.976a1.2,1.2,0,0,0-.7.193,1.991,1.991,0,0,0-.76,1.829c0,1.687.85,2.872,2.06,2.872a1.31,1.31,0,0,0,.889-.309,2.288,2.288,0,0,0,.567-1.79c0-1.674-.837-2.794-2.06-2.794Zm.232,5.512a2.842,2.842,0,0,1-2.975-3.116,2.788,2.788,0,0,1,1.275-2.447,3.876,3.876,0,0,1,1.97-.579,2.759,2.759,0,0,1,2.846,2.923,2.99,2.99,0,0,1-1.352,2.666,3.571,3.571,0,0,1-1.764.554ZM97.278,77.466a1.2,1.2,0,0,0-.7.193,1.991,1.991,0,0,0-.76,1.829c0,1.687.85,2.872,2.06,2.872a1.31,1.31,0,0,0,.889-.309,2.288,2.288,0,0,0,.567-1.79c0-1.674-.824-2.794-2.06-2.794Zm.232,5.512a2.842,2.842,0,0,1-2.975-3.116,2.788,2.788,0,0,1,1.275-2.447,3.876,3.876,0,0,1,1.97-.579,2.759,2.759,0,0,1,2.846,2.923,2.99,2.99,0,0,1-1.352,2.666,3.488,3.488,0,0,1-1.764.554Zm-14.719-.129a.552.552,0,0,1-.039-.3.435.435,0,0,1,.039-.193,4.723,4.723,0,0,0,.567-.116c.258-.064.361-.206.374-.528.039-.773.039-2.241.026-3.258v-.026a.39.39,0,0,0-.142-.361,2.9,2.9,0,0,0-.773-.335c-.116-.039-.193-.1-.18-.18s.077-.167.245-.193a9.431,9.431,0,0,0,1.97-.5.318.318,0,0,1,.064.206l-.013.142c-.013.142-.026.309-.026.477a.1.1,0,0,0,.1.09.183.183,0,0,0,.077-.026,3.632,3.632,0,0,1,1.957-.876,1.667,1.667,0,0,1,1.494.914.1.1,0,0,0,.09.051A.092.092,0,0,0,88.7,77.8a3.914,3.914,0,0,1,2.022-.927c1.2,0,1.906.889,1.906,2.4,0,.425,0,.979-.013,1.481,0,.451-.013.863-.013,1.159a.405.405,0,0,0,.232.309,2.747,2.747,0,0,0,.747.18H93.6a1.034,1.034,0,0,1-.077.489,3.151,3.151,0,0,1-.322-.013c-.245-.013-.592-.026-.979-.026-.8,0-1.211.013-1.61.039a1.253,1.253,0,0,1,0-.489,3.969,3.969,0,0,0,.489-.116c.258-.077.322-.193.335-.528,0-.245.051-2.331-.026-2.833a1.27,1.27,0,0,0-1.314-1.12,2.283,2.283,0,0,0-1.314.5.229.229,0,0,0-.051.129v.013a5.951,5.951,0,0,1,.051,1.056v.837c0,.58-.013,1.12,0,1.532a.377.377,0,0,0,.309.4c.077.013.129.026.193.039l.412.09a.7.7,0,0,1-.013.361.247.247,0,0,1-.051.129c-.438-.013-.889-.026-1.545-.026-.193,0-.528.013-.811.013-.232,0-.451.013-.579.013a.682.682,0,0,1-.039-.258.4.4,0,0,1,.052-.232.867.867,0,0,1,.18-.026c.154-.026.283-.052.412-.077.219-.064.3-.18.309-.464a22.346,22.346,0,0,0-.013-2.949,1.213,1.213,0,0,0-1.262-1.12,2.364,2.364,0,0,0-1.314.5.417.417,0,0,0-.116.3v.76c0,.927,0,2.086.013,2.588a.4.4,0,0,0,.361.4,2.662,2.662,0,0,0,.3.052l.232.039a1.081,1.081,0,0,1-.039.489c-.129,0-.283-.013-.464-.013-.27-.013-.618-.026-1-.026-.451,0-.773.013-1.03.026a3.115,3.115,0,0,0-.476-.026Z" transform="translate(-71.126 -66.108)" fill="#442d22" fill-rule="evenodd"/>
      <g id="Group_199" data-name="Group 199">
        <path id="Path_335" data-name="Path 335" d="M24.875,35.386l-.528-.18s.064-2.691-.9-2.885c-.644-.747.1-31.679,2.421-.1a1.883,1.883,0,0,0-.94,1.082,9.933,9.933,0,0,0-.052,2.086Z" transform="translate(-19.984 -15.554)" fill="#fff" fill-rule="evenodd"/>
        <path id="Path_336" data-name="Path 336" d="M24.875,35.386l-.528-.18s.064-2.691-.9-2.885c-.644-.747.1-31.679,2.421-.1a1.883,1.883,0,0,0-.94,1.082,9.933,9.933,0,0,0-.052,2.086Z" transform="translate(-19.984 -15.554)" fill="#a6a385" fill-rule="evenodd"/>
        <path id="Path_337" data-name="Path 337" d="M32.081,17.751a9.356,9.356,0,0,0,3.541-9.362c-1.043-4.6-3.5-6.1-3.773-6.683A6.5,6.5,0,0,1,31.27.572l.193,12.787c0,.013-.4,3.915.618,4.391" transform="translate(-26.906 -0.521)" fill="#fff" fill-rule="evenodd"/>
        <path id="Path_338" data-name="Path 338" d="M32.081,17.751a9.356,9.356,0,0,0,3.541-9.362c-1.043-4.6-3.5-6.1-3.773-6.683A6.5,6.5,0,0,1,31.27.572l.193,12.787c0,.013-.4,3.915.618,4.391" transform="translate(-26.906 -0.521)" fill="#499d4a" fill-rule="evenodd"/>
        <path id="Path_339" data-name="Path 339" d="M4.094,17.6S-.246,14.638.011,9.423a10.984,10.984,0,0,1,3.9-8.242A1.2,1.2,0,0,0,4.338.2c.27.58.219,8.667.257,9.619a31.03,31.03,0,0,1-.5,7.778Z" transform="translate(0 -0.203)" fill="#fff" fill-rule="evenodd"/>
        <path id="Path_340" data-name="Path 340" d="M4.094,17.6S-.246,14.638.011,9.423a10.984,10.984,0,0,1,3.9-8.242A1.2,1.2,0,0,0,4.338.2c.27.58.219,8.667.257,9.619a31.03,31.03,0,0,1-.5,7.778Z" transform="translate(0 -0.203)" fill="#58aa50" fill-rule="evenodd"/>
      </g>
    </g>
  </g>
</svg>
