<svg id="mysql" xmlns="http://www.w3.org/2000/svg" width="36.456" height="36.456" viewBox="0 0 36.456 36.456">
  <path id="Path_272" data-name="Path 272" d="M36.456,18.228a18.159,18.159,0,0,1-1.56,7.389c-.163.369-.339.731-.526,1.087a18.227,18.227,0,1,1,1.275-13.869q.109.355.205.717h0q.179.676.307,1.37.059.324.106.65c.022.146.042.292.059.439.033.263.059.529.08.8Q36.455,17.511,36.456,18.228Z" fill="#fdfdfd"/>
  <g id="Group_193" data-name="Group 193" transform="translate(23.062 2.825)">
    <path id="Path_273" data-name="Path 273" d="M367.961,76.775a2.766,2.766,0,0,1,.619.951.561.561,0,0,0,.121-.74A.556.556,0,0,0,367.961,76.775Z" transform="translate(-364.823 -74.073)" fill="#5181a2"/>
    <path id="Path_274" data-name="Path 274" d="M336.682,50.4a5.957,5.957,0,0,0-1.244-.464,1.412,1.412,0,0,1-.987-.892,26.962,26.962,0,0,0-1.292-2.881,10.038,10.038,0,0,0-3.939-4.3,3.835,3.835,0,0,0-2.056-.571,1.154,1.154,0,0,1-.717-.27c-.53-.446-1.574-.971-1.905-.774-.408.242,0,.8.573,1.51a8.876,8.876,0,0,1,1.1,2.551,2.515,2.515,0,0,0,.6.958.642.642,0,0,1,.158.719,5.429,5.429,0,0,0-.294,3.108c.257,1.253.845,1.238.845,1.238a2.991,2.991,0,0,1,.815-2.4,12.177,12.177,0,0,0,2.626,4.271c-1.479-.528-2.581-2.943-2.581-2.943s-.121.121-.226.921-1.072,1.283-1.781-.468a6.019,6.019,0,0,1,.211-3.955,6.353,6.353,0,0,1-1.253-2.46,2.644,2.644,0,0,0-.74-1.373c-.408-.407-1.208-1.585-.272-2.128s2.792.92,2.792.92c2.928-.106,5.947,3.457,6.43,4.724s1.841,3.8,1.841,3.8a6.548,6.548,0,0,1,1.083.44Q336.586,50.033,336.682,50.4Z" transform="translate(-323.894 -39.669)" fill="#5181a2"/>
    <path id="Path_275" data-name="Path 275" d="M493.545,211.46l-.043-.021a2.914,2.914,0,0,1-1.313-1.4,2.163,2.163,0,0,1,1.112-.461q.059.324.106.65l-.267.051c0,.092.129.23.326.388Q493.515,211.059,493.545,211.46Z" transform="translate(-480.206 -197.477)" fill="#5181a2"/>
  </g>
  <g id="Group_194" data-name="Group 194" transform="translate(0.455 17.78)">
    <path id="Path_276" data-name="Path 276" d="M15.427,258.607H14a65.467,65.467,0,0,0-.475-7.131l-2.242,7.131H10.129l-2.275-7.1a59.042,59.042,0,0,0-.3,6.176,18.056,18.056,0,0,1-1.167-3.465c.1-1.514.252-3.164.45-4.511H8.691l2.117,6.588,2.242-6.588h1.7S15.427,255.517,15.427,258.607Z" transform="translate(-6.385 -249.71)" fill="#ffa600"/>
    <path id="Path_277" data-name="Path 277" d="M142.646,283.157l1.472-.023s1.653,4.958,1.494,5.57a28.277,28.277,0,0,0,1.336-5.57H148.4s-.77,5.253-3.124,8.015a2.189,2.189,0,0,1-2.763.658v-.793a1.682,1.682,0,0,0,1.857-.475c.51-.729.023-1.986-.423-3.323C143.836,286.891,142.646,283.157,142.646,283.157Z" transform="translate(-132.818 -280.754)" fill="#ffa600"/>
  </g>
  <g id="Group_195" data-name="Group 195" transform="translate(16.94 17.711)">
    <path id="Path_278" data-name="Path 278" d="M237.908,257.093l.385-.77s2.649,1.177,3.328,0,.023-1.811-1.313-2.513-2.74-1.585-2.128-3.509,3.849-1.789,4.777-.86l-.317.747s-2.4-1.019-3.056.317,1.087,1.97,1.494,2.151,2.672,1.109,2.423,2.762-1.268,2.672-3.6,2.468A5.333,5.333,0,0,1,237.908,257.093Z" transform="translate(-237.908 -248.78)" fill="#5181a2"/>
    <path id="Path_279" data-name="Path 279" d="M330.607,257.159a4.826,4.826,0,0,0,1.43-3.866c0-2.515-.724-4.555-3.584-4.555-2.463,0-3.584,2.039-3.584,4.555s.82,4.555,3.584,4.555a3.947,3.947,0,0,0,1.091-.144l2.129,1.249.521-1.019Zm-2.154-.4c-1.6,0-2.078-1.551-2.078-3.464s.453-3.464,2.078-3.464c1.658,0,2.077,1.55,2.077,3.464S330.11,256.757,328.453,256.757Z" transform="translate(-318.677 -248.738)" fill="#5181a2"/>
    <path id="Path_280" data-name="Path 280" d="M446.649,258.167c-.163.369-.339.731-.526,1.087h-2.8v-8.876h1.4v7.789h1.926Z" transform="translate(-428.693 -250.261)" fill="#5181a2"/>
  </g>
</svg>
