<svg xmlns="http://www.w3.org/2000/svg" xmlns:xlink="http://www.w3.org/1999/xlink" width="37.073" height="35.407" viewBox="0 0 37.073 35.407">
  <defs>
    <linearGradient id="linear-gradient" x1="0.5" y1="-0.195" x2="0.5" y2="1.296" gradientUnits="objectBoundingBox">
      <stop offset="0" stop-color="#0994dc"/>
      <stop offset="0.35" stop-color="#66cef5"/>
      <stop offset="0.846" stop-color="#127bca"/>
      <stop offset="1" stop-color="#127bca"/>
    </linearGradient>
    <linearGradient id="linear-gradient-2" x1="0.5" y1="-0.195" x2="0.5" y2="1.296" gradientUnits="objectBoundingBox">
      <stop offset="0" stop-color="#0e76bc"/>
      <stop offset="0.36" stop-color="#36aee8"/>
      <stop offset="0.846" stop-color="#00adef"/>
      <stop offset="1" stop-color="#00adef"/>
    </linearGradient>
    <linearGradient id="linear-gradient-3" x1="0.5" y1="1.109" x2="0.5" y2="-0.062" gradientUnits="objectBoundingBox">
      <stop offset="0" stop-color="#1c63b7"/>
      <stop offset="0.5" stop-color="#33bdf2"/>
      <stop offset="1" stop-color="#33bdf2" stop-opacity="0.42"/>
    </linearGradient>
    <linearGradient id="linear-gradient-4" x1="0.5" y1="-0.195" x2="0.5" y2="1.296" gradientUnits="objectBoundingBox">
      <stop offset="0" stop-color="#166ab8"/>
      <stop offset="0.4" stop-color="#36aee8"/>
      <stop offset="0.846" stop-color="#0798dd"/>
      <stop offset="1" stop-color="#0798dd"/>
    </linearGradient>
    <linearGradient id="linear-gradient-5" x1="0.5" y1="-0.195" x2="0.5" y2="1.296" gradientUnits="objectBoundingBox">
      <stop offset="0" stop-color="#124379"/>
      <stop offset="0.39" stop-color="#1487cb"/>
      <stop offset="0.78" stop-color="#165197"/>
      <stop offset="1" stop-color="#165197"/>
    </linearGradient>
    <linearGradient id="linear-gradient-6" y1="0.5" x2="1" y2="0.5" gradientUnits="objectBoundingBox">
      <stop offset="0" stop-color="#33bdf2" stop-opacity="0.698"/>
      <stop offset="1" stop-color="#1dacd8"/>
    </linearGradient>
    <linearGradient id="linear-gradient-7" x1="0.5" y1="0.947" x2="0.5" y2="-0.03" gradientUnits="objectBoundingBox">
      <stop offset="0" stop-color="#136ab4"/>
      <stop offset="0.6" stop-color="#59caf5" stop-opacity="0.549"/>
      <stop offset="1" stop-color="#59caf5" stop-opacity="0.235"/>
    </linearGradient>
    <linearGradient id="linear-gradient-8" y1="0.5" x2="1" y2="0.5" gradientUnits="objectBoundingBox">
      <stop offset="0" stop-color="#05a1e6" stop-opacity="0.247"/>
      <stop offset="1" stop-color="#05a1e6"/>
    </linearGradient>
    <linearGradient id="linear-gradient-9" x1="0.5" y1="1.243" x2="0.5" y2="-0.094" gradientUnits="objectBoundingBox">
      <stop offset="0" stop-color="#318ed5"/>
      <stop offset="1" stop-color="#38a7e4"/>
    </linearGradient>
    <linearGradient id="linear-gradient-10" x1="0.5" y1="0.912" x2="0.5" y2="-0.768" gradientUnits="objectBoundingBox">
      <stop offset="0" stop-color="#05a1e6"/>
      <stop offset="1" stop-color="#05a1e6" stop-opacity="0.549"/>
    </linearGradient>
    <linearGradient id="linear-gradient-11" x1="0.5" y1="1" x2="0.5" gradientUnits="objectBoundingBox">
      <stop offset="0" stop-color="#1959a6"/>
      <stop offset="0.5" stop-color="#05a1e6"/>
      <stop offset="0.918" stop-color="#7ec5ea"/>
      <stop offset="1" stop-color="#7ec5ea"/>
    </linearGradient>
    <linearGradient id="linear-gradient-12" x1="0.598" y1="0.946" x2="0.385" y2="0.058" gradientUnits="objectBoundingBox">
      <stop offset="0" stop-color="#165096"/>
      <stop offset="1" stop-color="#0d82ca"/>
    </linearGradient>
    <linearGradient id="linear-gradient-13" x1="0.5" y1="0.77" x2="0.5" y2="-0.033" gradientUnits="objectBoundingBox">
      <stop offset="0" stop-color="#05a1e6"/>
      <stop offset="0.874" stop-color="#0495d6"/>
      <stop offset="1" stop-color="#0495d6"/>
    </linearGradient>
    <linearGradient id="linear-gradient-14" x1="0.653" y1="-0.042" x2="0.343" y2="1.058" gradientUnits="objectBoundingBox">
      <stop offset="0" stop-color="#38a7e4" stop-opacity="0.329"/>
      <stop offset="0.962" stop-color="#0e88d3"/>
      <stop offset="1" stop-color="#0e88d3"/>
    </linearGradient>
    <linearGradient id="linear-gradient-15" x1="0.5" y1="-0.003" x2="0.5" y2="1.019" gradientUnits="objectBoundingBox">
      <stop offset="0" stop-color="#168cd4"/>
      <stop offset="0.5" stop-color="#1c87cc"/>
      <stop offset="1" stop-color="#154b8d"/>
    </linearGradient>
    <linearGradient id="linear-gradient-16" x1="0.167" y1="-1.056" x2="0.878" y2="1.198" gradientUnits="objectBoundingBox">
      <stop offset="0" stop-color="#97d6ee"/>
      <stop offset="0.703" stop-color="#55c1ea"/>
      <stop offset="1" stop-color="#55c1ea"/>
    </linearGradient>
    <linearGradient id="linear-gradient-17" x1="0.069" y1="0.937" x2="0.758" y2="-0.168" gradientUnits="objectBoundingBox">
      <stop offset="0" stop-color="#7accec"/>
      <stop offset="1" stop-color="#3fb7ed"/>
    </linearGradient>
    <linearGradient id="linear-gradient-18" x1="0.5" y1="0.064" x2="0.5" y2="1.28" gradientUnits="objectBoundingBox">
      <stop offset="0" stop-color="#1da7e7"/>
      <stop offset="1" stop-color="#37abe7" stop-opacity="0"/>
    </linearGradient>
  </defs>
  <g id="net" transform="translate(-0.81)">
    <g id="Group_189" data-name="Group 189" transform="translate(4.665 17.095)">
      <path id="Path_201" data-name="Path 201" d="M181.3,7.777a.166.166,0,0,0-.052-.136.327.327,0,0,0-.2-.048h-.135v.372h.163c.151,0,.225-.063.225-.187Zm.211.775h-.186l-.119-.262c-.06-.131-.125-.2-.195-.2h-.1v.458h-.153V7.462h.307a.455.455,0,0,1,.309.091.262.262,0,0,1,.089.206.268.268,0,0,1-.073.191.367.367,0,0,1-.2.107v0c.061.014.122.081.181.2l.144.29Zm.34-.534a.728.728,0,0,0-.219-.539.762.762,0,1,0-.536,1.3.75.75,0,0,0,.755-.76Zm.1,0a.813.813,0,0,1-.249.605.9.9,0,0,1-1.225.007.871.871,0,0,1,0-1.211A.891.891,0,0,1,181.7,7.4a.808.808,0,0,1,.251.609Z" transform="translate(-154.059 -6.224)"/>
      <path id="Path_202" data-name="Path 202" d="M5.127,7.427H4.6V4.4c0-.239.016-.53.044-.873H4.63a2.863,2.863,0,0,1-.135.436L2.96,7.427H2.7L1.163,3.991a2.511,2.511,0,0,1-.135-.461H1.017c.016.181.025.473.025.879V7.427H.533v-4.5h.7l1.382,3.14a4.061,4.061,0,0,1,.2.539h.022c.09-.246.161-.431.216-.552L4.465,2.923h.661v4.5Z" transform="translate(-0.533 -2.597)"/>
      <path id="Path_203" data-name="Path 203" d="M39.792,6.269h-.514V3.053h.514V6.269ZM39.881,1.9a.322.322,0,0,1-.1.239.327.327,0,0,1-.24.1.332.332,0,0,1-.237-.094.342.342,0,0,1,0-.479.346.346,0,0,1,.477,0,.318.318,0,0,1,.1.237Z" transform="translate(-33.573 -1.439)"/>
      <path id="Path_204" data-name="Path 204" d="M51.114,14.366a1.653,1.653,0,0,1-.881.226,1.45,1.45,0,0,1-1.116-.459,1.623,1.623,0,0,1-.414-1.149,1.793,1.793,0,0,1,.455-1.277,1.585,1.585,0,0,1,1.22-.487,1.642,1.642,0,0,1,.744.163v.528a1.305,1.305,0,0,0-.766-.252,1.03,1.03,0,0,0-.8.343,1.328,1.328,0,0,0-.324.935,1.275,1.275,0,0,0,.3.889,1.023,1.023,0,0,0,.8.326,1.3,1.3,0,0,0,.791-.276v.489Z" transform="translate(-41.685 -9.686)"/>
      <path id="Path_205" data-name="Path 205" d="M72.28,11.952a.688.688,0,0,0-.92.179,1.41,1.41,0,0,0-.242.876v1.64H70.6V11.43h.515v.663h.012a1.129,1.129,0,0,1,.349-.543.771.771,0,0,1,.493-.176.835.835,0,0,1,.309.044v.534Z" transform="translate(-60.395 -9.817)"/>
      <path id="Path_206" data-name="Path 206" d="M86.342,12.91a1.406,1.406,0,0,0-.279-.942.95.95,0,0,0-.757-.311.992.992,0,0,0-.769.315,1.365,1.365,0,0,0-.3.951,1.3,1.3,0,0,0,.291.9,1,1,0,0,0,.782.325.94.94,0,0,0,.775-.329,1.411,1.411,0,0,0,.261-.911m.528-.018a1.735,1.735,0,0,1-.433,1.233,1.523,1.523,0,0,1-1.169.465,1.478,1.478,0,0,1-1.149-.465,1.675,1.675,0,0,1-.415-1.183,1.725,1.725,0,0,1,.471-1.3,1.6,1.6,0,0,1,1.167-.427,1.445,1.445,0,0,1,1.124.446,1.774,1.774,0,0,1,.4,1.229" transform="translate(-71.587 -9.683)"/>
      <path id="Path_207" data-name="Path 207" d="M111.37,13.653a.836.836,0,0,1-.3.655,1.3,1.3,0,0,1-.882.282,1.578,1.578,0,0,1-.8-.194v-.554a1.294,1.294,0,0,0,.836.308q.611,0,.612-.449a.4.4,0,0,0-.135-.31,2.141,2.141,0,0,0-.528-.3,1.694,1.694,0,0,1-.574-.365.887.887,0,0,1,.113-1.247,1.226,1.226,0,0,1,.817-.266,1.526,1.526,0,0,1,.688.151v.518a1.213,1.213,0,0,0-.73-.229.632.632,0,0,0-.409.125.4.4,0,0,0-.155.324.43.43,0,0,0,.129.332,1.789,1.789,0,0,0,.483.267,1.858,1.858,0,0,1,.594.356.793.793,0,0,1,.236.59" transform="translate(-93.535 -9.684)"/>
      <path id="Path_208" data-name="Path 208" d="M129.083,12.91a1.4,1.4,0,0,0-.279-.942.949.949,0,0,0-.757-.311,1,1,0,0,0-.77.315,1.367,1.367,0,0,0-.3.951,1.308,1.308,0,0,0,.29.9,1,1,0,0,0,.784.325.94.94,0,0,0,.775-.329,1.411,1.411,0,0,0,.261-.911m.529-.018a1.733,1.733,0,0,1-.435,1.233,1.519,1.519,0,0,1-1.168.465,1.478,1.478,0,0,1-1.149-.465,1.675,1.675,0,0,1-.415-1.183,1.732,1.732,0,0,1,.471-1.3,1.6,1.6,0,0,1,1.168-.427,1.442,1.442,0,0,1,1.123.446,1.772,1.772,0,0,1,.4,1.229" transform="translate(-108.102 -9.683)"/>
      <path id="Path_209" data-name="Path 209" d="M152.355,1.2a.691.691,0,0,0-.342-.085c-.36,0-.539.227-.539.682v.5h.754v.436h-.754v2.78h-.515V2.734h-.547V2.3h.547V1.776a1.066,1.066,0,0,1,.329-.832.986.986,0,0,1,.695-.26,1.006,1.006,0,0,1,.373.056V1.2Z" transform="translate(-128.577 -0.684)"/>
      <path id="Path_210" data-name="Path 210" d="M166.69,9.362a.971.971,0,0,1-.484.1q-.842,0-.842-.949v-1.9h-.552V6.178h.552V5.394c.164-.052.335-.108.516-.167v.951h.81v.437h-.81V8.43a.735.735,0,0,0,.109.459.444.444,0,0,0,.368.138.545.545,0,0,0,.333-.1v.439Z" transform="translate(-140.879 -4.565)"/>
    </g>
    <g id="Group_190" data-name="Group 190" transform="translate(0.81 23.409)">
      <path id="Path_211" data-name="Path 211" d="M2.646,70.79a.9.9,0,0,1-.272.654.892.892,0,0,1-.659.276.857.857,0,0,1-.642-.276.95.95,0,0,1,0-1.313.859.859,0,0,1,.642-.272.89.89,0,0,1,.659.275.9.9,0,0,1,.272.655" transform="translate(-0.81 -59.722)"/>
      <path id="Path_212" data-name="Path 212" d="M36.756,12.087H35.077L28.982,2.676a4.319,4.319,0,0,1-.369-.741h-.05a12.262,12.262,0,0,1,.066,1.622v8.531H27.244V.279h1.8l5.912,9.263c.235.368.4.631.478.789h.033A12.439,12.439,0,0,1,35.38,8.6V.279h1.376V12.087Z" transform="translate(-23.393 -0.279)"/>
      <path id="Path_213" data-name="Path 213" d="M116.737,12.087h-6.258V.279h5.987V1.53h-4.6V5.458h4.266V6.71h-4.266v4.125h4.875v1.252Z" transform="translate(-94.501 -0.279)"/>
      <path id="Path_214" data-name="Path 214" d="M170.551,1.528h-3.4V12.085h-1.383V1.528h-3.408V.276h8.193V1.528Z" transform="translate(-138.824 -0.276)"/>
    </g>
    <g id="Group_191" data-name="Group 191" transform="translate(0.836 0)">
      <path id="Path_215" data-name="Path 215" d="M88.5,17.858c1.335,4.083,1.841,11.367,5.745,11.367h0a4.808,4.808,0,0,0,.9-.086h0c-3.549-.828-3.97-8.032-6.136-11.763h0c-.17.154-.338.315-.509.483" transform="translate(-75.632 -14.844)" fill="url(#linear-gradient)"/>
      <path id="Path_216" data-name="Path 216" d="M91.992,15.1c2.166,3.731,2.586,10.935,6.136,11.763h0a5.648,5.648,0,0,0,.838-.226h0C95.78,25.073,94.9,18.077,92.44,14.709h0q-.223.186-.448.388" transform="translate(-78.616 -12.566)" fill="url(#linear-gradient-2)"/>
      <path id="Path_217" data-name="Path 217" d="M94.052,2.145a4.823,4.823,0,0,0-.9.086,6.888,6.888,0,0,0-2.4,1,5.96,5.96,0,0,1,.629.74,8.626,8.626,0,0,1,2.455-1.491,5.473,5.473,0,0,1,.916-.254,2.821,2.821,0,0,0-.7-.085" transform="translate(-77.555 -1.833)" fill="#14559a"/>
      <path id="Path_218" data-name="Path 218" d="M123.845,14.5q.489-.389.979-.859c-1.357-4.064-1.842-11.452-5.774-11.452a4.654,4.654,0,0,0-.848.079c3.581.891,4.04,8.683,5.642,12.232" transform="translate(-101.008 -1.868)" fill="url(#linear-gradient-3)"/>
      <path id="Path_219" data-name="Path 219" d="M114.109,2.229a2.824,2.824,0,0,0-.7-.085l1.546.006a4.6,4.6,0,0,0-.848.079" transform="translate(-96.914 -1.832)" fill="#3092c4"/>
      <path id="Path_220" data-name="Path 220" d="M142.279,89.8a5.816,5.816,0,0,1-.443-.479,8.135,8.135,0,0,1-1.975,1.055,3.042,3.042,0,0,0,.736.251,3.12,3.12,0,0,0,.627.062,4.114,4.114,0,0,0,1.81-.324,3.436,3.436,0,0,1-.755-.564" transform="translate(-119.511 -76.311)" fill="#1969bc"/>
      <path id="Path_221" data-name="Path 221" d="M111.917,2.982c3.208,1.678,3.487,9.275,6.046,12.36h0c.172-.121.341-.249.511-.384h0c-1.6-3.549-2.06-11.342-5.641-12.232h0a5.545,5.545,0,0,0-.916.256" transform="translate(-95.638 -2.329)" fill="url(#linear-gradient-4)"/>
      <path id="Path_222" data-name="Path 222" d="M95.067,5.971c2.459,3.368,3.34,10.364,6.526,11.925h0a8.134,8.134,0,0,0,1.975-1.055h0c-2.56-3.085-2.838-10.683-6.046-12.36h0a8.609,8.609,0,0,0-2.455,1.49" transform="translate(-81.243 -3.828)" fill="url(#linear-gradient-5)"/>
      <path id="Path_223" data-name="Path 223" d="M70.337,14.2a36.666,36.666,0,0,0-1.255,3.513,26.129,26.129,0,0,1,2.829-3.414,10.255,10.255,0,0,0-.418-1.09,14.1,14.1,0,0,0-1.156.992" transform="translate(-59.043 -11.281)" fill="url(#linear-gradient-6)"/>
      <path id="Path_224" data-name="Path 224" d="M85.977,11.479c-.113.081-.227.164-.341.251a10.273,10.273,0,0,1,.417,1.09c.17-.167.34-.328.509-.483a6.754,6.754,0,0,0-.584-.859" transform="translate(-73.185 -9.807)" fill="#2b74b1"/>
      <path id="Path_225" data-name="Path 225" d="M88.382,9.629c-.135.085-.269.175-.4.269a6.788,6.788,0,0,1,.585.86c.15-.135.3-.266.448-.389a5.96,5.96,0,0,0-.629-.74" transform="translate(-75.187 -8.227)" fill="#125a9e"/>
      <path id="Path_226" data-name="Path 226" d="M184.891,0c-1.814,7-5.6,12.616-8.78,14.033h-.006c-.058.026-.115.05-.172.073a.15.15,0,0,1-.021.008l-.049.019a.126.126,0,0,1-.022.009c-.027.01-.053.018-.079.028l-.033.011-.039.013-.038.013c-.011,0-.023.007-.034.011s-.045.012-.068.02a.13.13,0,0,0-.029.008l-.046.012a.142.142,0,0,1-.031.009l-.05.013-.061.013a1.294,1.294,0,0,0,.455.08c3.012,0,6.05-5.4,11.075-14.376h-1.973Z" transform="translate(-149.816 0)" fill="url(#linear-gradient-7)"/>
      <path id="Path_227" data-name="Path 227" d="M9.561,2.412s0,0,.005,0a.006.006,0,0,0,.007,0h0l.049-.019a.009.009,0,0,0,.01,0s.008,0,.013-.005L9.7,2.355h0c.04-.012.077-.027.116-.041.005,0,.011,0,.017,0s.033-.011.049-.015a.1.1,0,0,1,.023-.007l.05-.015c.007,0,.014,0,.019-.005.055-.015.11-.03.166-.043.008,0,.014,0,.023-.005a.317.317,0,0,1,.048-.01.084.084,0,0,1,.024-.007c.016,0,.032-.005.049-.009H10.3l.1-.019h.02a.424.424,0,0,1,.046-.008c.009,0,.018,0,.026,0a.343.343,0,0,0,.045-.007.048.048,0,0,0,.024,0c.035,0,.071-.007.108-.01-.1-.01-.212-.017-.321-.017C6.956,2.125,2.282,8.42.177,16.571H.582c.674-1.2,1.279-2.338,1.833-3.406C3.89,7.392,6.893,3.454,9.561,2.411" transform="translate(-0.177 -1.815)" fill="url(#linear-gradient-8)"/>
      <path id="Path_228" data-name="Path 228" d="M77.7,11.076a14.091,14.091,0,0,1,1.156-.992,5.457,5.457,0,0,0-.275-.532,6.518,6.518,0,0,0-.881,1.524" transform="translate(-66.405 -8.161)" fill="#0d82ca"/>
      <path id="Path_229" data-name="Path 229" d="M79.36,4.293a2.894,2.894,0,0,1,.6.748c.057-.07.115-.135.175-.2a3.4,3.4,0,0,0-.82-.574l.036.017s0,0,.007,0" transform="translate(-67.787 -3.649)" fill="#0d82ca"/>
      <path id="Path_230" data-name="Path 230" d="M15.54,14.847C18.634,8.886,20.1,5.114,22.686,4.092h0c-2.667,1.044-5.671,4.981-7.146,10.755" transform="translate(-13.302 -3.496)" fill="url(#linear-gradient-9)"/>
      <path id="Path_231" data-name="Path 231" d="M83.916,8.208c-.06.061-.117.126-.175.2a5.535,5.535,0,0,1,.276.532c.114-.088.228-.17.341-.251a4.646,4.646,0,0,0-.442-.477" transform="translate(-71.567 -7.012)" fill="#127bca"/>
      <path id="Path_232" data-name="Path 232" d="M23.726,52.414h0a.416.416,0,0,1-.056.007h-.011c-.016,0-.033,0-.048,0H23.6c-.039,0-.077,0-.114.008h-.012A5.086,5.086,0,0,0,28.75,48.5c.54-1.724.983-3.176,1.372-4.394a62.255,62.255,0,0,0-3.953,6.511,3.242,3.242,0,0,1-2.443,1.79" transform="translate(-20.083 -37.684)" fill="url(#linear-gradient-10)"/>
      <path id="Path_233" data-name="Path 233" d="M25.18,31.819h0a3.241,3.241,0,0,0,2.443-1.79h0a62.526,62.526,0,0,1,3.953-6.511h0a36.581,36.581,0,0,1,1.256-3.513h0c-2.611,2.486-5.233,6.619-7.651,11.813" transform="translate(-21.537 -17.091)" fill="url(#linear-gradient-11)"/>
      <path id="Path_234" data-name="Path 234" d="M4.792,77.916c-.553,1.067-1.159,2.2-1.833,3.406H4.14a28.846,28.846,0,0,1,.652-3.4" transform="translate(-2.554 -66.565)" fill="#05a1e6"/>
      <path id="Path_235" data-name="Path 235" d="M19.878,2.3c-.01,0-.017,0-.025,0h0a.2.2,0,0,1-.044.006h0a.052.052,0,0,0-.026,0h0a.453.453,0,0,1-.046.008h0a.03.03,0,0,0-.02,0h0l-.1.018H19.6a.4.4,0,0,1-.049.01h0a.083.083,0,0,1-.024.007h0a.453.453,0,0,1-.048.01h0a.046.046,0,0,1-.023.005h0c-.055.013-.11.028-.166.043h0c-.006,0-.012,0-.019.006h0l-.05.015h0a.069.069,0,0,1-.023.007h0l-.049.015h0c-.006,0-.012,0-.018,0h0c-.038.014-.076.029-.115.041h0l-.052.018h0a.11.11,0,0,1-.022.009h0l-.049.018h0a.082.082,0,0,1-.016.008h0c-2.587,1.021-4.053,4.794-7.146,10.755h0a28.721,28.721,0,0,0-.652,3.4h.166c.467,0,.6,0,1.135,0h.52c.037,0,.075,0,.114-.008h.007c.016,0,.032,0,.048,0h.011c.017,0,.037,0,.056-.007h0c2.418-5.194,5.04-9.327,7.651-11.813h0a6.54,6.54,0,0,1,.88-1.523h0a2.885,2.885,0,0,0-.6-.748h0s-.006,0-.006,0h0l-.037-.018h0l-.036-.019h0l-.036-.017h0a.332.332,0,0,1-.042-.018h0l-.033-.014h0L20.811,2.5h0l-.029-.011h0l-.051-.021h0a.175.175,0,0,0-.027-.009h0l-.071-.024h-.006c-.027-.009-.054-.016-.082-.023h0a.035.035,0,0,0-.018-.006h0l-.069-.02h0c-.006,0-.011,0-.016,0h0c-.056-.015-.114-.027-.172-.038h0c-.006,0-.012,0-.018,0h0c-.025,0-.049-.009-.074-.012h0a.02.02,0,0,0-.015,0h0l-.088-.011h-.015c-.024,0-.046-.005-.068-.008h0c-.038,0-.073.007-.108.01" transform="translate(-9.494 -1.966)" fill="url(#linear-gradient-12)"/>
      <path id="Path_236" data-name="Path 236" d="M183.518,5.7c-.6,1.907-1.077,3.479-1.5,4.774h0a51.833,51.833,0,0,0,4.774-8.337h0A4.907,4.907,0,0,0,183.518,5.7" transform="translate(-155.529 -1.826)" fill="url(#linear-gradient-13)"/>
      <path id="Path_237" data-name="Path 237" d="M180.917,13.925c-.083.042-.167.083-.249.119,3.177-1.417,6.966-7.036,8.78-14.033h-.368c-4.168,7.446-5.509,12.43-8.164,13.914" transform="translate(-154.373 -0.01)" fill="url(#linear-gradient-14)"/>
      <path id="Path_238" data-name="Path 238" d="M164.3,64.006a15.336,15.336,0,0,0,2.023-4.641,23.233,23.233,0,0,1-2.672,3.118s0,0,0,.008a8.139,8.139,0,0,0,.652,1.515" transform="translate(-139.833 -50.716)" fill="#079ae1"/>
      <path id="Path_239" data-name="Path 239" d="M162.59,91.223a2.832,2.832,0,0,1-.761.668c-.061.035-.122.069-.185.1a2.677,2.677,0,0,0,.969.306h0l.158.014h.01a.425.425,0,0,1,.076,0h.258a.063.063,0,0,0,.029,0,.236.236,0,0,0,.057,0h.028c.02,0,.041,0,.062-.007h0c.006,0,.013,0,.019,0,.022,0,.045-.007.066-.01h.02l.074-.012h.012c.05-.01.1-.019.148-.031a2.158,2.158,0,0,1-1.049-1.008" transform="translate(-138.12 -77.933)" fill="#1969bc"/>
      <path id="Path_240" data-name="Path 240" d="M127.936,96.877a4.762,4.762,0,0,0,.9-.087,5.571,5.571,0,0,0,.838-.226,3.047,3.047,0,0,0,.736.251,3.126,3.126,0,0,0,.628.062Z" transform="translate(-109.324 -82.496)" fill="#1e5cb3"/>
      <path id="Path_241" data-name="Path 241" d="M149.211,96.811a4.111,4.111,0,0,0,1.809-.324,2.678,2.678,0,0,0,.969.306h0l.158.014h.01a.424.424,0,0,1,.076,0h-3.023Z" transform="translate(-127.497 -82.43)" fill="#1e5cb3"/>
      <path id="Path_242" data-name="Path 242" d="M170.6,98.249h.17a.062.062,0,0,0,.029,0,.244.244,0,0,0,.058,0h.028c.02,0,.041,0,.061-.007h.005c.006,0,.012,0,.019,0,.022,0,.045-.007.066-.01a.033.033,0,0,0,.02,0l.075-.012h.012c.05-.01.1-.019.148-.031h0a1.294,1.294,0,0,0,.455.08l-1.145,0Z" transform="translate(-145.771 -83.868)" fill="#1d60b5"/>
      <path id="Path_243" data-name="Path 243" d="M154.916,80.8v0q-.491.469-.979.859c-.17.135-.34.263-.512.384a5.812,5.812,0,0,0,.443.479,3.436,3.436,0,0,0,.755.564c.062-.031.124-.064.184-.1a2.825,2.825,0,0,0,.762-.668,8.139,8.139,0,0,1-.652-1.515" transform="translate(-131.099 -69.021)" fill="#175fab"/>
      <path id="Path_244" data-name="Path 244" d="M177.2.011h-1.85c-.1,0-.2.008-.293.014h0c-.045.1-.092.194-.136.292h0a51.829,51.829,0,0,1-4.773,8.337h0a15.32,15.32,0,0,1-2.023,4.641h0a2.163,2.163,0,0,0,1.048,1.009h0a.188.188,0,0,1,.032-.007h.007c.007,0,.015,0,.023,0h0c.017,0,.035-.008.051-.013h0a.265.265,0,0,1,.03-.009h0l.046-.012h0a.109.109,0,0,1,.029-.008h0l.068-.021h0a.2.2,0,0,1,.034-.011h0c.013,0,.026-.008.038-.014h0c.014,0,.027-.007.039-.012h0l.032-.012h0c.027-.01.053-.018.08-.028h0c.007,0,.014-.007.022-.008h0l.049-.019h0a.06.06,0,0,1,.021-.008h0c.056-.023.114-.047.172-.073h.006c.082-.036.166-.077.248-.119h0c2.655-1.484,4-6.468,8.164-13.914H177.2Z" transform="translate(-143.655 -0.01)" fill="url(#linear-gradient-15)"/>
      <path id="Path_245" data-name="Path 245" d="M72.2,2.235a.029.029,0,0,1,.019,0,.153.153,0,0,1,.048.005h.016l.088.011a.018.018,0,0,1,.015,0l.074.012c.005,0,.013,0,.018,0,.057.011.116.023.172.038.005,0,.011,0,.015,0,.024.006.045.013.069.02.007,0,.012,0,.019.006.028.007.054.014.082.023,0,0,0,0,.006,0l.071.024a.136.136,0,0,0,.027.009l.051.021a.1.1,0,0,1,.029.01l.068.029.033.014a.294.294,0,0,0,.041.018l.036.017.036.019a3.419,3.419,0,0,1,.82.574,2.662,2.662,0,0,1,.291-.264,3.2,3.2,0,0,0-1.9-.614c-.083,0-.167,0-.251.011" transform="translate(-61.706 -1.906)" fill="#7dcbec"/>
      <path id="Path_246" data-name="Path 246" d="M84.943,6.66a4.645,4.645,0,0,1,.442.477c.135-.094.269-.185.4-.269a4.262,4.262,0,0,0-.556-.471,2.6,2.6,0,0,0-.29.264" transform="translate(-72.594 -5.464)" fill="#5ec5ed"/>
      <path id="Path_247" data-name="Path 247" d="M70.318-6.379c.085-.007.168-.01.251-.01a3.2,3.2,0,0,1,1.9.613A3.431,3.431,0,0,1,74.727-6.4H70c.109,0,.216.007.321.016" transform="translate(-59.826 6.708)" fill="url(#linear-gradient-16)"/>
      <path id="Path_248" data-name="Path 248" d="M89.2-9.63a3.431,3.431,0,0,0-2.261.619,4.3,4.3,0,0,1,.555.471,6.893,6.893,0,0,1,2.4-1,4.875,4.875,0,0,1,.9-.086Z" transform="translate(-74.297 9.943)" fill="url(#linear-gradient-17)"/>
      <path id="Path_249" data-name="Path 249" d="M166.355,8.764c.42-1.3.9-2.868,1.5-4.775A4.9,4.9,0,0,1,171.128.426c.047-.1.092-.195.138-.292a4.979,4.979,0,0,0-4.959,3.851c-1.2,3.831-1.924,6.314-2.623,7.9a23.3,23.3,0,0,0,2.672-3.117" transform="translate(-139.863 -0.114)" fill="url(#linear-gradient-18)"/>
      <path id="Path_250" data-name="Path 250" d="M206.687,90.99h-.33v1.026h-.135V90.99h-.331v-.122h.8v.122Z" transform="translate(-175.921 -77.63)"/>
      <path id="Path_251" data-name="Path 251" d="M213.773,92.015h-.134v-.771c0-.061,0-.135.011-.223h0a.78.78,0,0,1-.036.112l-.391.882h-.066l-.392-.875a.636.636,0,0,1-.035-.119h0c0,.046.006.121.006.225v.769H212.6V90.867h.178l.352.8a1.043,1.043,0,0,1,.052.138h.005c.023-.063.042-.11.055-.141l.359-.8h.169v1.148Z" transform="translate(-181.656 -77.629)"/>
    </g>
  </g>
</svg>
