<svg xmlns="http://www.w3.org/2000/svg" width="20.659" height="15.911" viewBox="0 0 20.659 15.911">
  <g id="_135-download" data-name="135-download" transform="translate(0 74.742) rotate(-90)">
    <g id="Group_2" data-name="Group 2" transform="translate(65.951)">
      <g id="Group_1" data-name="Group 1">
        <path id="Path_2" data-name="Path 2" d="M236.152,0a.835.835,0,0,0-.835.835v18.99a.834.834,0,1,0,1.669,0V.835A.834.834,0,0,0,236.152,0Z" transform="translate(-235.318)" fill="#fff"/>
      </g>
    </g>
    <g id="Group_4" data-name="Group 4" transform="translate(58.83 11.869)">
      <g id="Group_3" data-name="Group 3">
        <path id="Path_3" data-name="Path 3" d="M74.5,294.392a.835.835,0,0,0-1.18,0l-6.531,6.531-6.531-6.531a.835.835,0,0,0-1.18,1.18l7.121,7.121a.834.834,0,0,0,1.18,0l7.121-7.121A.835.835,0,0,0,74.5,294.392Z" transform="translate(-58.83 -294.147)" fill="#fff"/>
      </g>
    </g>
  </g>
</svg>
