<svg xmlns="http://www.w3.org/2000/svg" width="56.711" height="15.324" viewBox="0 0 56.711 15.324">
  <g id="nodejs" transform="translate(0 0.018)">
    <path id="Path_258" data-name="Path 258" d="M8.533,50.042a.463.463,0,0,0-.232-.4L4.5,47.45a.463.463,0,0,0-.212-.06H4.245a.475.475,0,0,0-.211.06l-3.8,2.191a.463.463,0,0,0-.232.4l.008,5.9a.232.232,0,0,0,.339.2l2.262-1.3a.463.463,0,0,0,.232-.4V51.688a.463.463,0,0,1,.232-.4l.963-.555a.455.455,0,0,1,.232-.061.448.448,0,0,1,.232.061l.963.555a.463.463,0,0,1,.232.4v2.756a.463.463,0,0,0,.232.4l2.256,1.3a.232.232,0,0,0,.347-.2Z" transform="translate(0 -41.918)" fill="#333" fill-rule="evenodd"/>
    <path id="Path_259" data-name="Path 259" d="M203.147.013a.232.232,0,0,0-.347.2V6.057a.162.162,0,0,1-.081.139.16.16,0,0,1-.161,0l-.944-.549a.463.463,0,0,0-.463,0l-3.809,2.2a.463.463,0,0,0-.232.4v4.4a.463.463,0,0,0,.232.4l3.809,2.2a.463.463,0,0,0,.463,0l3.809-2.2a.463.463,0,0,0,.232-.4V1.679a.463.463,0,0,0-.232-.4Zm-.353,11.182a.116.116,0,0,1-.058.1l-1.307.754a.116.116,0,0,1-.116,0L200,11.294a.116.116,0,0,1-.058-.1V9.689a.116.116,0,0,1,.057-.1l1.309-.755a.116.116,0,0,1,.116,0l1.307.755a.116.116,0,0,1,.058.1Z" transform="translate(-174.285 0)" fill="#333" fill-rule="evenodd"/>
    <path id="Path_260" data-name="Path 260" d="M303.635,51.947a.463.463,0,0,0,.232-.4V50.485a.463.463,0,0,0-.232-.4l-3.783-2.2a.463.463,0,0,0-.463,0l-3.807,2.2a.463.463,0,0,0-.232.4v4.4a.463.463,0,0,0,.232.4l3.783,2.156a.463.463,0,0,0,.452,0l2.288-1.274a.232.232,0,0,0,0-.4l-3.831-2.2a.232.232,0,0,1-.116-.2V51.99a.232.232,0,0,1,.116-.2l1.2-.687a.232.232,0,0,1,.232,0l1.193.687a.232.232,0,0,1,.116.2v1.084a.232.232,0,0,0,.347.2Z" transform="translate(-261.149 -42.302)" fill="#333" fill-rule="evenodd"/>
    <path id="Path_261" data-name="Path 261" d="M102.667,47.706a.463.463,0,0,1,.463,0l3.809,2.2a.463.463,0,0,1,.232.4v4.4a.463.463,0,0,1-.232.4l-3.807,2.2a.463.463,0,0,1-.463,0l-3.806-2.2a.463.463,0,0,1-.232-.4V50.3a.463.463,0,0,1,.232-.4Z" transform="translate(-87.209 -42.143)" fill="#80bd01" fill-rule="evenodd"/>
    <path id="Path_262" data-name="Path 262" d="M397.557,56.737a.757.757,0,0,1-.376-.1l-1.2-.71c-.179-.1-.091-.135-.032-.156a2.358,2.358,0,0,0,.542-.247.1.1,0,0,1,.089.007l.921.548a.116.116,0,0,0,.116,0l3.59-2.073a.116.116,0,0,0,.056-.1V49.763a.116.116,0,0,0-.057-.1l-3.59-2.07a.116.116,0,0,0-.116,0l-3.59,2.07a.116.116,0,0,0-.057.1v4.144a.116.116,0,0,0,.057.1l.984.569c.534.266.86-.047.86-.364V50.118a.1.1,0,0,1,.1-.1h.455a.1.1,0,0,1,.1.1v4.091a1,1,0,0,1-1.063,1.121,1.538,1.538,0,0,1-.828-.225l-.941-.542a.761.761,0,0,1-.376-.655V49.763a.757.757,0,0,1,.376-.654l3.59-2.075a.787.787,0,0,1,.755,0l3.59,2.075a.76.76,0,0,1,.376.654v4.144a.763.763,0,0,1-.376.655l-3.59,2.073A.759.759,0,0,1,397.557,56.737Z" transform="translate(-347.677 -41.518)" fill="#80bd01"/>
    <path id="Path_263" data-name="Path 263" d="M425.82,76.519c-1.571,0-1.9-.72-1.9-1.326a.1.1,0,0,1,.1-.1h.463a.1.1,0,0,1,.1.088c.069.472.279.711,1.229.711.756,0,1.079-.171,1.079-.572,0-.232-.091-.4-1.267-.519-.983-.1-1.591-.314-1.591-1.1,0-.725.611-1.158,1.635-1.158,1.15,0,1.72.4,1.791,1.256a.1.1,0,0,1-.1.116H426.9a.1.1,0,0,1-.1-.081c-.116-.5-.383-.657-1.121-.657-.826,0-.926.288-.926.5,0,.262.116.337,1.229.485s1.627.347,1.627,1.128S426.959,76.519,425.82,76.519Z" transform="translate(-374.831 -64.156)" fill="#80bd01"/>
    <path id="Path_264" data-name="Path 264" d="M325.835,81.564a.091.091,0,0,1,.088,0l.731.423a.086.086,0,0,1,.044.076v.843a.086.086,0,0,1-.044.076l-.731.422a.086.086,0,0,1-.088,0l-.731-.422a.088.088,0,0,1-.044-.076v-.838a.088.088,0,0,1,.044-.076Z" transform="translate(-287.418 -72.125)" fill="#80bd01" fill-rule="evenodd"/>
    <path id="Path_265" data-name="Path 265" d="M479.13,52.165a.695.695,0,1,1-.695-.695.695.695,0,0,1,.695.695Zm-1.274,0a.579.579,0,1,0,.579-.579.579.579,0,0,0-.579.579Zm.32-.386h.267c.091,0,.271,0,.271.2a.178.178,0,0,1-.146.19c.107.007.116.078.127.176a.782.782,0,0,0,.04.2h-.164c0-.037-.03-.232-.03-.245-.01-.044-.025-.066-.08-.066h-.135v.312h-.151Zm.147.34h.116a.1.1,0,0,0,.116-.116c0-.107-.073-.107-.116-.107h-.124Z" transform="translate(-422.418 -45.526)" fill="#80bd01"/>
  </g>
</svg>
