<svg xmlns="http://www.w3.org/2000/svg" xmlns:xlink="http://www.w3.org/1999/xlink" width="30.914" height="33.836" viewBox="0 0 30.914 33.836">
  <defs>
    <linearGradient id="linear-gradient" x1="-19.329" y1="-7.331" x2="-17.556" y2="-8.474" gradientUnits="objectBoundingBox">
      <stop offset="0" stop-color="#909ca9"/>
      <stop offset="1" stop-color="#ededee"/>
    </linearGradient>
    <linearGradient id="linear-gradient-2" x1="-35.974" y1="-78.812" x2="-33.349" y2="-78.812" gradientUnits="objectBoundingBox">
      <stop offset="0" stop-color="#939fab"/>
      <stop offset="1" stop-color="#dcdee1"/>
    </linearGradient>
    <radialGradient id="radial-gradient" cx="-94.199" cy="-278.83" r="3.775" gradientTransform="matrix(-0.691, -0.099, 0.184, -1.286, -189.693, -822.063)" gradientUnits="userSpaceOnUse">
      <stop offset="0" stop-color="#ee352c"/>
      <stop offset="1" stop-color="#a91d22"/>
    </radialGradient>
  </defs>
  <g id="microsoft-sql-server" transform="translate(0.001 0.006)">
    <path id="Path_268" data-name="Path 268" d="M19.517,380.54l-6.775,2.213-5.894,2.6-1.651.435c-.42.4-.86.8-1.337,1.214-.523.452-1.009.862-1.383,1.158a10.3,10.3,0,0,0-1.342,1.332,6.038,6.038,0,0,0-.994,1.68,2.82,2.82,0,0,0,.4,2.535,8.979,8.979,0,0,0,3.7,2.781A23.492,23.492,0,0,0,7.5,397.58a43.094,43.094,0,0,0,6.945.989,7.949,7.949,0,0,0,.9,0A12.084,12.084,0,0,0,16,397.314a31.748,31.748,0,0,0,2.4-6.356,30.154,30.154,0,0,0,.614-4.4c.036-.5.051-2.161.021-2.725a19.146,19.146,0,0,0-.256-2.4.546.546,0,0,1-.015-.21,9.035,9.035,0,0,1,.916-.276l-.169-.4h0Zm-1.545.907a16.6,16.6,0,0,1,.266,2.566,1.371,1.371,0,0,1-.005.348c-.042,0-.865-.486-1.453-.855-.512-.323-1.485-.968-1.639-1.091-.051-.036-.046-.042.374-.185C16.223,381.989,17.914,381.447,17.972,381.447Zm-3.452,1.137a1.7,1.7,0,0,1,.445.241,31.971,31.971,0,0,0,3.1,1.726c.189.083.21.051-.225.348a22.329,22.329,0,0,1-3.519,1.89c-.249.113-.461.2-.466.2a1.868,1.868,0,0,1,.061-.281,15.121,15.121,0,0,0,.548-3.6c0-.512,0-.512.051-.528-.01.005-.005.005,0,.005Zm-.712.271a11.089,11.089,0,0,1-.031,1.49,13.005,13.005,0,0,1-.471,2.228,3.457,3.457,0,0,1-.117.359,9.184,9.184,0,0,1-.955-.927,6.923,6.923,0,0,1-.942-1.373,4.3,4.3,0,0,1-.287-.7c.083-.056,2.781-1.1,2.8-1.079Zm-3.352,1.315a.02.02,0,0,1,.015,0,.978.978,0,0,1,.077.184,7.014,7.014,0,0,0,.85,1.521,8.644,8.644,0,0,0,1.183,1.278c.125.1.236.2.251.215.031.031.042.025-.794.343-.968.369-2.023.738-3.232,1.127l-.865.282c-.046.015-.031-.01.1-.22a28.785,28.785,0,0,0,2.023-4.077c.087-.225.174-.451.19-.5a.184.184,0,0,1,.112-.133.505.505,0,0,1,.087-.02Zm-1.024.425a11.4,11.4,0,0,1-.5,1.06c-.5.968-1.038,1.921-1.767,3.078-.125.2-.241.384-.256.4s-.036.025-.118-.133a4.69,4.69,0,0,1-.394-1.188,4.782,4.782,0,0,1,.026-1.526c.066-.318.061-.312.215-.389C7.291,385.569,9.412,384.573,9.432,384.6Zm8.835.359v.215a27.864,27.864,0,0,1-.3,3.852c-.031.2-.056.364-.061.369s-.149-.042-.323-.092a13.235,13.235,0,0,1-2.356-1.009,10.354,10.354,0,0,1-1.2-.738c0-.005.22-.118.471-.251a30.248,30.248,0,0,0,2.8-1.644c.312-.21.783-.548.886-.64l.083-.061Zm-12.7,1.516c.02,0,.015.042-.015.225-.021.133-.046.379-.056.548a3.8,3.8,0,0,0,.451,2.059c.1.21.184.384.179.389-.036.031-3.426,1.024-4.492,1.316-.317.087-.594.166-.614.169-.036.01-.042.005-.026-.083a5.387,5.387,0,0,1,1.49-2.565,6.621,6.621,0,0,1,1.685-1.29c.523-.3,1.328-.743,1.388-.763,0,0,.005,0,.01,0Zm7.99,1.429a2.05,2.05,0,0,1,.276.148,15.4,15.4,0,0,0,3.923,1.526l.118.026-.164.092c-.681.379-2.92,1.311-5.209,2.167-.332.125-.661.246-.722.271a.378.378,0,0,1-.118.036c0-.005.092-.184.21-.4a25.089,25.089,0,0,0,1.613-3.672c.042-.1.066-.184.072-.189Zm-.814.267a1.469,1.469,0,0,1-.087.236,32.511,32.511,0,0,1-1.777,3.58c-.189.338-.348.609-.353.609s-.159-.092-.343-.2A10.506,10.506,0,0,1,7.5,390.108l-.092-.113.466-.128a33.553,33.553,0,0,0,4.5-1.552C12.572,388.233,12.736,388.166,12.742,388.166Zm5.06,1.767h0c0,.118-.256,1.173-.471,1.936-.179.64-.332,1.142-.615,2.028-.125.389-.23.712-.236.712a.359.359,0,0,1-.066-.015,21.415,21.415,0,0,1-4.164-1.173c-.358-.144-.872-.374-.9-.4a5.92,5.92,0,0,1,.686-.323c2.33-1.019,4.748-2.177,5.577-2.674a.672.672,0,0,1,.19-.092Zm-11.682.4c.01.01-.64.947-1.552,2.223-.318.445-.687.968-.825,1.162s-.348.5-.466.686l-.215.332-.23-.195a8.522,8.522,0,0,1-.953-.973,4.208,4.208,0,0,1-.855-1.654c-.056-.246-.056-.369,0-.384.077-.02,1.444-.343,2.725-.64.712-.164,1.536-.359,1.833-.43s.54-.128.543-.128Zm.655.249.164.184a9.609,9.609,0,0,0,2.4,1.969,1.258,1.258,0,0,1,.276.179c-.036.025-3.165,1.137-4.614,1.639-.814.287-1.486.517-1.491.517a.926.926,0,0,1-.1-.066l-.092-.067.149-.215c.481-.7,1.086-1.459,2.4-3.047l.907-1.091Zm4.086,2.928s.23.077.507.179a16.428,16.428,0,0,0,1.9.589,21.305,21.305,0,0,0,2.873.5c.113.01.174.02.154.036s-.789.271-1.342.446c-.881.276-3.57,1.07-5.762,1.7-.4.118-.753.215-.773.22a.411.411,0,0,1-.22-.056,3.688,3.688,0,0,1,.271-.343,30.316,30.316,0,0,0,2.08-2.8c.169-.256.313-.466.313-.471Zm-.9.026s-.359.589-.994,1.593c-.271.425-.574.907-.681,1.075s-.256.42-.343.563l-.149.262-.077-.021c-.184-.053-1.48-.509-1.823-.646a12.7,12.7,0,0,1-1.194-.548,5,5,0,0,1-.881-.558c.01-.005.712-.2,1.557-.425,2.244-.609,3.487-.963,4.3-1.219a2.006,2.006,0,0,1,.282-.077Zm6.376,1.494h0c.021.051-.809,2.356-1.112,3.084-.066.164-.092.2-.128.2-.087,0-1.29-.174-2.023-.282-1.275-.195-3.416-.569-3.954-.692L9,397.314l.763-.174c1.639-.369,2.428-.569,3.226-.814a22.773,22.773,0,0,0,3.017-1.162,2.6,2.6,0,0,1,.328-.133Z" transform="translate(0 -364.751)" fill="url(#linear-gradient)"/>
    <path id="Path_269" data-name="Path 269" d="M131.144-.006a32.464,32.464,0,0,0-3.1,1.117,19.352,19.352,0,0,0-3.57,1.792,2.71,2.71,0,0,0-.691.692.474.474,0,0,0-.031.174l.686.65,1.634.522,3.887.7L134.4,6.4l.046-.384c-.015,0-.026,0-.042,0l-.584-.092-.117-.21c-.6-1.065-1.27-2.387-1.66-3.279A16.97,16.97,0,0,1,131.3.367C131.211.019,131.2,0,131.144-.006Zm-.083.261h.005s.026.149.046.318a10.7,10.7,0,0,0,.5,2.158c.189.563.189.533-.031.466-.523-.144-2.864-.548-4.558-.784-.271-.036-.5-.072-.5-.077-.021-.022,1.224-.673,1.772-.929.7-.323,2.627-1.127,2.771-1.152ZM126.125,2.55l.2.066a30.526,30.526,0,0,0,5.321,1.014l.318.031a3.087,3.087,0,0,1-.323.169c-.727.364-1.526.809-2.08,1.152a2.166,2.166,0,0,1-.332.184c-.02,0-.128-.02-.241-.036l-.207-.032-.512-.5c-.9-.874-1.6-1.55-1.878-1.806Zm-.205.159.722.9c.394.5.794.983.881,1.091a1.7,1.7,0,0,1,.154.2c-.021.015-1.045-.185-1.588-.308s-.789-.189-1.132-.3l-.282-.093V4.133c0-.343.44-.855,1.178-1.378Zm6.135,1.229c.021,0,.046.046.108.184.174.384.717,1.419.85,1.619.042.067.112.072-.609-.046-1.736-.282-2.295-.374-2.295-.384a.512.512,0,0,1,.117-.077,10,10,0,0,0,1.562-1.079c.118-.1.225-.189.246-.205,0-.01.015-.015.02-.01Z" transform="translate(-118.613)" fill="url(#linear-gradient-2)"/>
    <path id="Path_270" data-name="Path 270" d="M63.009,85a.509.509,0,0,0,0,.446,2.021,2.021,0,0,0,.481.569s2.279,2.223,2.556,2.54A7.119,7.119,0,0,1,67.9,93.42a7.877,7.877,0,0,1-.809,3.683c-1.066,2.326-3.314,4.892-6.781,7.738l.507-.166a16.021,16.021,0,0,1,1.818-1.079,64.809,64.809,0,0,1,8.456-3.785,105.425,105.425,0,0,1,17.163-4.6l.466-.072-.073-.115a15.85,15.85,0,0,0-1.029-1.449,12.3,12.3,0,0,0-3.637-3.027A26.993,26.993,0,0,0,76.089,87.9c-.62-.125-1.982-.358-3.089-.528-2.346-.363-3.86-.614-5.531-.9-.6-.1-1.494-.256-2.09-.384a13.12,13.12,0,0,1-1.357-.364C63.655,85.581,63.122,85.436,63.009,85Zm1.321,1.281a1.445,1.445,0,0,1,.195.061c.195.066.446.144.743.225q.337.093.674.18c.308.077.563.149.569.149.036.036.553,1.69.727,2.324.066.241.118.445.113.445a1.371,1.371,0,0,1-.128-.2A10.66,10.66,0,0,0,64.58,86.48a2.2,2.2,0,0,1-.251-.2Zm2.52.7a2.007,2.007,0,0,1,.276.046c.872.195,2.433.492,3.432.661a1.28,1.28,0,0,1,.3.066.534.534,0,0,1-.139.087c-.169.087-.85.492-1.075.645A9.914,9.914,0,0,0,68.2,89.64c-.148.149-.276.271-.276.271s-.031-.087-.056-.195a16.6,16.6,0,0,0-.916-2.51,2.144,2.144,0,0,1-.1-.235c0,.01,0,0,0,0Zm4.436.846a1.932,1.932,0,0,1,.184.569,8.378,8.378,0,0,1,.246,2.346c-.01.215-.02.415-.031.44l-.015.051-.266-.087c-.548-.174-1.44-.435-2.2-.65-.435-.118-.789-.225-.789-.236a12.453,12.453,0,0,1,.907-.907A23.632,23.632,0,0,1,71.286,87.823Zm.353.051c.015-.015,2.121.349,3.078.533.712.138,1.747.353,1.808.379.031.01-.077.072-.42.225a22.177,22.177,0,0,0-3.355,1.823c-.261.174-.481.317-.486.317a2.692,2.692,0,0,1-.01-.327,7.155,7.155,0,0,0-.553-2.786.784.784,0,0,1-.061-.164Zm5.444,1.076a3.816,3.816,0,0,1-.112.676,12.849,12.849,0,0,1-1.29,2.96,3.471,3.471,0,0,1-.215.348,2.117,2.117,0,0,1-.307-.166,16.7,16.7,0,0,0-2.008-.984c-.2-.087-.384-.159-.389-.169-.036-.031,1.613-1.121,2.484-1.644.692-.42,1.818-1.045,1.838-1.024Zm.389.061c.046,0,.978.256,1.465.4a30.13,30.13,0,0,1,3.487,1.276l.374.169-.261.061a38.366,38.366,0,0,0-5.905,1.826c-.149.061-.282.113-.291.113a1.506,1.506,0,0,1,.108-.261,10.367,10.367,0,0,0,.989-3.411c0-.1.02-.174.036-.174Zm-9.28,2.132c.015-.015.727.154,1.112.261.584.166,1.823.579,1.823.609,0,.005-.138.125-.3.266-.671.557-1.316,1.146-2.09,1.893-.23.22-.425.4-.435.4s-.015-.031-.01-.072a11.539,11.539,0,0,0-.071-3.088C68.2,91.27,68.187,91.147,68.192,91.143Zm14.96.015A9.649,9.649,0,0,1,82.61,92c-.307.44-.758,1.024-1.777,2.3-.54.676-1.142,1.439-1.342,1.7s-.374.471-.379.471a1.709,1.709,0,0,1-.144-.205,10.574,10.574,0,0,0-2.075-2.289c-.154-.128-.323-.266-.379-.308a.566.566,0,0,1-.1-.087c0-.015.872-.389,1.531-.656,1.158-.471,2.735-1.034,3.918-1.4.62-.195,1.281-.384,1.29-.374Zm.394.1a1.127,1.127,0,0,1,.291.143,17.358,17.358,0,0,1,3.426,2.571c.271.266.942.963.932.968s-.235.021-.512.042a50.508,50.508,0,0,0-7.57,1.26c-.179.042-.338.077-.348.077s.19-.2.441-.44a13.108,13.108,0,0,0,3.109-4.138c.118-.249.22-.466.23-.481ZM72.141,92.427c.072.015.738.328,1.239.579.461.23,1.153.6,1.188.63,0,0-.241.133-.543.282-.963.481-1.787.937-2.646,1.459-.246.149-.451.271-.457.271s-.015-.02.125-.271a10.7,10.7,0,0,0,1.038-2.823c.02-.077.042-.128.056-.128Zm-.664.125a9.779,9.779,0,0,1-.266.989A12.633,12.633,0,0,1,70.3,95.62c-.083.143-.205.353-.271.471L69.9,96.3l-.287-.276a3.743,3.743,0,0,0-.953-.7,1.409,1.409,0,0,1-.246-.143c0-.042.876-.835,1.547-1.409.481-.415,1.494-1.229,1.511-1.214Zm4.072,1.675.251.164a19.466,19.466,0,0,1,1.765,1.3c.291.241.855.747.968.872l.061.066-.415.118c-2.346.65-4.159,1.229-6.274,2.008-.236.087-.435.159-.451.159-.031,0-.056.026.471-.461A22.5,22.5,0,0,0,75.367,94.5l.179-.276Zm-1.07.266c.01.01-.692,1-1.112,1.557-.5.664-1.393,1.782-2.008,2.51-.257.3-.477.553-.488.557s-.02-.072-.02-.19a4.289,4.289,0,0,0-.435-1.844c-.118-.236-.138-.291-.112-.318.1-.087,1.588-.937,2.53-1.444.635-.338,1.629-.84,1.644-.83ZM68,96.081a2.267,2.267,0,0,1,.266.133,5.6,5.6,0,0,1,.881.594,1.575,1.575,0,0,1-.3.246c-.487.348-1.224.907-1.655,1.25-.451.359-.466.369-.415.291A8.817,8.817,0,0,0,67.9,96.34a.9.9,0,0,1,.1-.261Zm1.726,1.352c.025,0,.056.042.195.246a3.713,3.713,0,0,1,.574,1.49l.01.1-.7.271c-1.255.486-2.412.968-3.2,1.328-.22.1-.6.287-.855.41s-.457.225-.457.22.159-.125.354-.266A20.68,20.68,0,0,0,69.5,97.686c.108-.128.2-.246.215-.251Zm-.794.195a10.826,10.826,0,0,1-.963,1.086,17,17,0,0,1-3.181,2.566l-.307.195c-.036.02.01-.031.543-.61.338-.364.594-.671.886-1.05a1.752,1.752,0,0,1,.512-.486c.753-.545,2.489-1.723,2.509-1.7Z" transform="translate(-57.808 -81.478)" fill="url(#radial-gradient)"/>
  </g>
</svg>
