<svg id="php_1_" data-name="php (1)" xmlns="http://www.w3.org/2000/svg" width="34.366" height="34.366" viewBox="0 0 34.366 34.366">
  <path id="Path_254" data-name="Path 254" d="M34.366,17.183A17.185,17.185,0,0,1,2.29,25.759a17.188,17.188,0,1,1,32.076-8.575Z" transform="translate(0)" fill="#fff"/>
  <g id="Group_192" data-name="Group 192" transform="translate(0.606 8.287)">
    <path id="Path_255" data-name="Path 255" d="M17.159,178.239H10.831L9.028,188a17.049,17.049,0,0,0,1.684,4.038H11.3l.7-3.779h3.477c4.234,0,5.372-3.8,5.645-5.668A3.873,3.873,0,0,0,17.159,178.239Zm.918,4.663a3.472,3.472,0,0,1-3.337,3.214H12.393l1.049-5.679h2.39C18.161,180.436,18.233,181.843,18.078,182.9Z" transform="translate(-9.028 -174.563)" fill="#8f9ed1"/>
    <path id="Path_256" data-name="Path 256" d="M351.914,178.681a4.14,4.14,0,0,0-1.92-.443h-6.328l-2.549,13.795h3.017l.7-3.779h3.477a5.012,5.012,0,0,0,4.008-1.751,17.314,17.314,0,0,0-.4-7.822Zm-1,4.219a3.472,3.472,0,0,1-3.338,3.214h-2.347l1.049-5.679h2.39C351,180.435,351.068,181.842,350.913,182.9Z" transform="translate(-318.827 -174.562)" fill="#8f9ed1"/>
    <path id="Path_257" data-name="Path 257" d="M190.671,127.19h-3.665l.688-3.722h-3l-2.549,13.795h3l1.466-7.933h1.92c1.275,0,2.14.273,1.958,1.457s-1.229,6.419-1.229,6.419h3.05s1.184-5.827,1.366-7.466S192.355,127.19,190.671,127.19Z" transform="translate(-170.52 -123.468)" fill="#8f9ed1"/>
  </g>
</svg>
