<svg xmlns="http://www.w3.org/2000/svg" width="69.012" height="16.695" viewBox="0 0 69.012 16.695">
  <g id="Layer_1" transform="translate(-26.536 -22.383)">
    <g id="Group_196" data-name="Group 196" transform="translate(26.536 22.383)">
      <path id="Path_281" data-name="Path 281" d="M164.549,34.168a1.387,1.387,0,0,0,.111,2.4,32.385,32.385,0,0,0,3.176.665.878.878,0,0,1,.628.443,1.081,1.081,0,0,1-.554,1.477,4.1,4.1,0,0,1-2.659-.074,1.453,1.453,0,0,1-.849-1.293,4.469,4.469,0,0,0-.7.037,1.921,1.921,0,0,0,.554,1.4,3.95,3.95,0,0,0,2.327.628,4.024,4.024,0,0,0,2.179-.48,1.415,1.415,0,0,0-.074-2.327,10.571,10.571,0,0,0-2.585-.628,3.85,3.85,0,0,1-1.256-.406.921.921,0,0,1,.369-1.514,4.041,4.041,0,0,1,2.474.037,1.263,1.263,0,0,1,.739,1.071h.7a1.544,1.544,0,0,0-.517-1.219,3.271,3.271,0,0,0-2.105-.517A3.644,3.644,0,0,0,164.549,34.168Z" transform="translate(-113.043 -29.619)" fill="#326690"/>
      <path id="Path_282" data-name="Path 282" d="M86.816,34.443a2.127,2.127,0,0,0-1.4-.443c-1.071,0-2.142.037-3.213.037v5.687h.554c0-.812-.037-1.625,0-2.4h2.733a1.871,1.871,0,0,0,1.7-1A1.757,1.757,0,0,0,86.816,34.443Zm-.3,1.773a1.31,1.31,0,0,1-1.219.665c-.849.037-1.7,0-2.511,0V34.517h2.437a1.188,1.188,0,0,1,1.293,1.7Z" transform="translate(-61.642 -29.71)"/>
      <path id="Path_283" data-name="Path 283" d="M200.1,34.037v5.687h4.912v-.48c-1.4-.037-2.807,0-4.247-.037V34A4.014,4.014,0,0,1,200.1,34.037Z" transform="translate(-136 -29.71)" fill="#326690"/>
      <path id="Path_284" data-name="Path 284" d="M122.039,36.037v1.219H121.3v.369h.739V40.21a.759.759,0,0,0,.3.665,2.547,2.547,0,0,0,1.293.111v-.369a1.329,1.329,0,0,1-.849-.074c-.185-.111-.148-.332-.185-.517v-2.4h1a1.515,1.515,0,0,0-.037-.406h-1V36A2.113,2.113,0,0,1,122.039,36.037Z" transform="translate(-86.302 -30.971)" fill="#fff"/>
      <path id="Path_285" data-name="Path 285" d="M109.717,39.532a.918.918,0,0,0,.111,1.551c.849.3,1.81.222,2.7.48A.58.58,0,0,1,112.6,42.6a3.108,3.108,0,0,1-1.92.148.945.945,0,0,1-.849-.849H109.2a1.458,1.458,0,0,0,.443.923,3.23,3.23,0,0,0,1.662.369,3.481,3.481,0,0,0,1.736-.332.919.919,0,0,0,.332-1.256,1.244,1.244,0,0,0-.849-.48c-.7-.148-1.44-.148-2.142-.3a.585.585,0,0,1-.48-.517c0-.369.406-.554.739-.628a3.055,3.055,0,0,1,1.625.111c.3.111.369.406.443.7h.628a1.157,1.157,0,0,0-.443-.886,2.919,2.919,0,0,0-1.847-.332A2.114,2.114,0,0,0,109.717,39.532Z" transform="translate(-78.671 -33.026)" fill="#fff"/>
      <path id="Path_286" data-name="Path 286" d="M144.117,39.259a1.325,1.325,0,0,0-.554.628v-.628h-.591c-.037,1.256,0,2.474,0,3.73h.554v-1.92a1.5,1.5,0,0,1,.517-1.219,2.275,2.275,0,0,1,1.4-.222v-.48A2.728,2.728,0,0,0,144.117,39.259Z" transform="translate(-99.96 -32.938)" fill="#fff"/>
      <path id="Path_287" data-name="Path 287" d="M181.125,34.163a4.922,4.922,0,0,1,2.622-.406A3.226,3.226,0,0,1,186,34.791a3,3,0,0,1,.554,2.881A2.809,2.809,0,0,1,185.63,39c.332.222.665.443,1,.7-.148.148-.3.259-.443.406-.332-.222-.665-.48-1-.665a3.844,3.844,0,0,0-.812.222,5.971,5.971,0,0,1-2.29,0,3.071,3.071,0,0,1-2.068-1.366,3.2,3.2,0,0,1-.3-2.4A2.78,2.78,0,0,1,181.125,34.163Zm1.108.148a2.455,2.455,0,0,0-1.773,1.514,2.65,2.65,0,0,0,.443,2.548,2.844,2.844,0,0,0,2.179.886,3,3,0,0,0,2.437-.923,2.543,2.543,0,0,0-.369-3.508A3.285,3.285,0,0,0,182.233,34.311Z" transform="translate(-123.082 -29.54)" fill="#326690"/>
      <path id="Path_288" data-name="Path 288" d="M122.165,36.1h.591v1.219h1a1.515,1.515,0,0,0,.037.406h-1v2.4c0,.185,0,.406.185.517a2.154,2.154,0,0,0,.849.074v.369a2.547,2.547,0,0,1-1.293-.111.6.6,0,0,1-.3-.665V37.725H121.5v-.369h.739A7.378,7.378,0,0,1,122.165,36.1Z" transform="translate(-86.428 -31.034)"/>
      <path id="Path_289" data-name="Path 289" d="M99.47,39.4a3.521,3.521,0,0,0-2.216-.3,1.9,1.9,0,0,0-1.477,1.034,2.24,2.24,0,0,0,.037,1.884,2.035,2.035,0,0,0,1.7,1,2.926,2.926,0,0,0,2.437-.7A2.043,2.043,0,0,0,99.47,39.4Zm-.111,2.77a1.787,1.787,0,0,1-1.256.48,1.961,1.961,0,0,1-1.44-.406,1.781,1.781,0,0,1-.369-1.81,1.489,1.489,0,0,1,1.256-.96,2.4,2.4,0,0,1,1.588.259,1.315,1.315,0,0,1,.591,1.034A1.593,1.593,0,0,1,99.359,42.171Z" transform="translate(-70.085 -32.895)"/>
      <path id="Path_290" data-name="Path 290" d="M109.654,39.406a2.592,2.592,0,0,1,1.293-.332,2.876,2.876,0,0,1,1.847.332,1.157,1.157,0,0,1,.443.886h-.628a.828.828,0,0,0-.443-.7,2.709,2.709,0,0,0-1.625-.111c-.332.037-.739.222-.739.628-.037.259.222.48.48.517.7.185,1.44.148,2.142.3a1.4,1.4,0,0,1,.849.48.911.911,0,0,1-.332,1.256,3.481,3.481,0,0,1-1.736.332,3.23,3.23,0,0,1-1.662-.369,1.233,1.233,0,0,1-.443-.923h.628a.885.885,0,0,0,.849.849,3.4,3.4,0,0,0,1.92-.148.58.58,0,0,0-.074-1.034c-.886-.259-1.847-.185-2.7-.48C109.137,40.7,109.137,39.738,109.654,39.406Z" transform="translate(-78.608 -32.9)"/>
      <path id="Path_291" data-name="Path 291" d="M129.994,39.118a3.484,3.484,0,0,1,1.847.037,2.706,2.706,0,0,1,.849.591c0-.222.037-.406.037-.591h.554c.037,1.145,0,2.29.037,3.435a1.6,1.6,0,0,1-.443,1.33,2.617,2.617,0,0,1-1.81.517,3.688,3.688,0,0,1-1.662-.3,1.322,1.322,0,0,1-.591-.923h.554c.111.259.222.554.48.665a3.058,3.058,0,0,0,1.293.185,1.726,1.726,0,0,0,1.33-.517,2.275,2.275,0,0,0,.222-1.4,2.656,2.656,0,0,1-2.327.628,2.279,2.279,0,0,1-1.4-.665,2.111,2.111,0,0,1-.3-1.81A1.8,1.8,0,0,1,129.994,39.118Zm.48.369a1.54,1.54,0,0,0-1.071.628,1.881,1.881,0,0,0-.111,1.477,1.519,1.519,0,0,0,1.219.812,2.114,2.114,0,0,0,1.81-.48,1.566,1.566,0,0,0-.222-2.179A2.233,2.233,0,0,0,130.474,39.487Z" transform="translate(-90.897 -32.87)"/>
      <path id="Path_292" data-name="Path 292" d="M144.1,39.243a3.284,3.284,0,0,1,1.33-.148v.48a2.275,2.275,0,0,0-1.4.222,1.5,1.5,0,0,0-.517,1.219v1.92h-.554c-.037-1.256-.037-2.474,0-3.73h.591v.628A1.426,1.426,0,0,1,144.1,39.243Z" transform="translate(-99.941 -32.921)"/>
      <path id="Path_293" data-name="Path 293" d="M149.826,40.012a2.225,2.225,0,0,1,1.847-.923,2.59,2.59,0,0,1,2.068.628,2.1,2.1,0,0,1,.554,1.477h-4.173a1.553,1.553,0,0,0,.443,1.034,2.235,2.235,0,0,0,2.031.369,1.364,1.364,0,0,0,.96-.886h.628a1.833,1.833,0,0,1-1.366,1.219,3.333,3.333,0,0,1-2.585-.369A2.009,2.009,0,0,1,149.826,40.012Zm1.071-.3a1.51,1.51,0,0,0-.7,1.108h3.545a1.312,1.312,0,0,0-.3-.739A2.079,2.079,0,0,0,150.9,39.717Z" transform="translate(-104.118 -32.915)"/>
      <path id="Path_294" data-name="Path 294" d="M36.367,22.685a6.947,6.947,0,0,0-2.142-.037,3.888,3.888,0,0,0-1.145.443,7.568,7.568,0,0,0-3.619-.369,3.041,3.041,0,0,0-2.105,1.44,5.28,5.28,0,0,0-.591,3.1,22.893,22.893,0,0,0,.776,3.508,11.544,11.544,0,0,0,1.182,2.881,2.391,2.391,0,0,0,1.33,1.145,1.566,1.566,0,0,0,1.33-.332,1.545,1.545,0,0,0,.665.406,2.962,2.962,0,0,0,2.179-.037,8.146,8.146,0,0,0,.369,2.844,1.979,1.979,0,0,0,.776,1.108,2.062,2.062,0,0,0,1.477.259A3.832,3.832,0,0,0,38.14,38.6a2.365,2.365,0,0,0,.923-1.071,8.25,8.25,0,0,0,.517-3.139,3.858,3.858,0,0,0,2.881-.886,1.118,1.118,0,0,0,.443-1.071.876.876,0,0,0-.886-.591c-.406.037-.776.148-1.182.148a15.24,15.24,0,0,0,1.884-4.949,4.986,4.986,0,0,0,0-2.216,2.461,2.461,0,0,0-.7-1.034A4.98,4.98,0,0,0,39.506,22.5,6.43,6.43,0,0,0,36.367,22.685Z" transform="translate(-26.668 -22.383)" fill="#fff"/>
      <path id="Path_295" data-name="Path 295" d="M36.994,23.868a5.922,5.922,0,0,1,3.4-.111,4.316,4.316,0,0,1,2.253,1.514,1.808,1.808,0,0,1,.3,1.071,6.95,6.95,0,0,1-.259,1.957,16.09,16.09,0,0,1-2.068,4.764,3.037,3.037,0,0,0,1.625.037c.222-.037.517-.111.665.111a.512.512,0,0,1-.148.628,3.388,3.388,0,0,1-2.991.776c-.111.923-.222,1.847-.369,2.807a2.189,2.189,0,0,1-.665,1.4,2.63,2.63,0,0,1-1.366.554,1.68,1.68,0,0,1-1.44-.332,2.231,2.231,0,0,1-.7-1.44A23.778,23.778,0,0,1,35.11,34.8a2.354,2.354,0,0,1-1.625.554,1.908,1.908,0,0,1-1.182-.406.386.386,0,0,1,.037-.591c.332-.259.776-.222,1.145-.369.3-.074.443-.369.591-.554a2.442,2.442,0,0,1-.923-.259c-.443.48-.886,1-1.293,1.477a1.1,1.1,0,0,1-1,.48,1.754,1.754,0,0,1-1.034-.739,8.878,8.878,0,0,1-1.071-2.327,25.4,25.4,0,0,1-.923-4.026,4.415,4.415,0,0,1,.591-2.991,2.828,2.828,0,0,1,2.105-1.145,7.5,7.5,0,0,1,3.25.48,3.919,3.919,0,0,1,2.955-.443C36.846,23.868,36.92,23.905,36.994,23.868Zm.812.3c.222.148.443.259.665.406a5.477,5.477,0,0,1,1.994,2.4,1.856,1.856,0,0,1,.222.886,16.171,16.171,0,0,0-.148,1.884,5.371,5.371,0,0,1,.037,2.031,4.932,4.932,0,0,1-.259.665.372.372,0,0,0,.037.111l.222-.332a14.88,14.88,0,0,0,1.588-3.693,8.644,8.644,0,0,0,.332-2.179,1.514,1.514,0,0,0-.222-.886,3.909,3.909,0,0,0-1.588-1.182A5.444,5.444,0,0,0,37.806,24.164Zm-2.585.074a2.6,2.6,0,0,0-1.773,1.034,5.309,5.309,0,0,0-.886,2.659,3.052,3.052,0,0,1,1.884-.369,1.167,1.167,0,0,1,.812.886A5.947,5.947,0,0,1,35.369,31c-.148.665-.554,1.256-.7,1.957a1.18,1.18,0,0,1,.517.111.952.952,0,0,1,.48.923,23.108,23.108,0,0,0,.037,2.77,6.077,6.077,0,0,0,.148,1.145,1.4,1.4,0,0,0,.923,1,2.726,2.726,0,0,0,1.514-.3,1.589,1.589,0,0,0,.739-1.219c.148-1,.259-1.994.369-2.991a2.127,2.127,0,0,1,.185-1.071c.111-.222.332-.3.517-.406-.148-.222-.332-.443-.48-.665a14.43,14.43,0,0,1-1.366-3.1,1.424,1.424,0,0,1,.369-1.366,2.356,2.356,0,0,1,1.588-.332,5.3,5.3,0,0,0-1.662-2.327A4.705,4.705,0,0,0,35.221,24.237Zm-4.912.074a2.277,2.277,0,0,0-1.588,1.071,4.229,4.229,0,0,0-.406,2.511,21.47,21.47,0,0,0,.739,3.324,11.238,11.238,0,0,0,1.108,2.659,1.512,1.512,0,0,0,.739.7c.3.074.517-.185.7-.369.369-.48.812-.923,1.219-1.4a2.544,2.544,0,0,1-.812-2.142,10.167,10.167,0,0,0,.074-1.847,6.93,6.93,0,0,1,.332-2.585,4.18,4.18,0,0,1,.96-1.662A7.867,7.867,0,0,0,30.309,24.311Zm8.605,3.8a.976.976,0,0,0-.222,1,13.762,13.762,0,0,0,1.293,2.918,4.011,4.011,0,0,0,.074-2.29,9.707,9.707,0,0,1,.148-1.81A2.268,2.268,0,0,0,38.914,28.115Zm-6.389.406c0,.517.037,1.034,0,1.514a4.021,4.021,0,0,0-.037,1.33,1.775,1.775,0,0,0,1.7,1.477,6.481,6.481,0,0,1,.443-1.182,4.486,4.486,0,0,0,.148-3.176.667.667,0,0,0-.628-.517A3.174,3.174,0,0,0,32.525,28.521Zm7.5,4.986a.748.748,0,0,0-.148.554,2.59,2.59,0,0,0,1.071.074,2.524,2.524,0,0,0,1.477-.628,3.534,3.534,0,0,1-1.957-.074A.472.472,0,0,0,40.022,33.507Zm-6.094.739c-.369.222-.812.185-1.145.369a1.915,1.915,0,0,0,2.327-.443.455.455,0,0,0-.332-.739C34.409,33.655,34.261,34.061,33.928,34.246Z" transform="translate(-27.331 -23.123)" fill="#fff"/>
      <path id="Path_296" data-name="Path 296" d="M58.232,36.091a.874.874,0,0,1,.739-.074.441.441,0,0,1-.628.369C58.269,36.35,58.121,36.2,58.232,36.091Z" transform="translate(-46.501 -30.951)" fill="#fff"/>
      <path id="Path_297" data-name="Path 297" d="M43.948,36.337a.716.716,0,0,1,.665.111c.111.111,0,.3-.111.332a.465.465,0,0,1-.7-.3A.159.159,0,0,1,43.948,36.337Z" transform="translate(-37.424 -31.16)" fill="#fff"/>
      <path id="Path_298" data-name="Path 298" d="M54.9,24.961a4.973,4.973,0,0,1,2.844.148,3.606,3.606,0,0,1,1.588,1.182,1.284,1.284,0,0,1,.222.886,8.9,8.9,0,0,1-.332,2.179,14.88,14.88,0,0,1-1.588,3.693l-.222.332a.372.372,0,0,0-.037-.111,4.932,4.932,0,0,0,.259-.665,5.371,5.371,0,0,0-.037-2.031,16.172,16.172,0,0,1,.148-1.884,1.967,1.967,0,0,0-.222-.886,5.736,5.736,0,0,0-1.994-2.4A2.715,2.715,0,0,0,54.9,24.961Z" transform="translate(-44.425 -23.921)" fill="#326690"/>
      <path id="Path_299" data-name="Path 299" d="M43.3,25.341a4.565,4.565,0,0,1,3.287.886,5.024,5.024,0,0,1,1.662,2.327,2.4,2.4,0,0,0-1.588.332,1.424,1.424,0,0,0-.369,1.366,12.989,12.989,0,0,0,1.366,3.1,2.765,2.765,0,0,0,.48.665.955.955,0,0,0-.517.406,3.431,3.431,0,0,0-.185,1.071c-.111,1-.222,1.994-.369,2.991a1.589,1.589,0,0,1-.739,1.219,2.666,2.666,0,0,1-1.514.3,1.277,1.277,0,0,1-.923-1,6.077,6.077,0,0,1-.148-1.145c-.037-.923-.037-1.847-.037-2.77a.952.952,0,0,0-.48-.923,1.18,1.18,0,0,0-.517-.111c.148-.665.554-1.256.7-1.957a5.947,5.947,0,0,0-.111-2.548,1.167,1.167,0,0,0-.812-.886,2.818,2.818,0,0,0-1.884.369,5.309,5.309,0,0,1,.886-2.659A2.919,2.919,0,0,1,43.3,25.341Z" transform="translate(-35.406 -24.227)" fill="#326690"/>
      <path id="Path_300" data-name="Path 300" d="M31.143,25.474a6.656,6.656,0,0,1,3.065.3,4.18,4.18,0,0,0-.96,1.662,7.543,7.543,0,0,0-.332,2.585,7.74,7.74,0,0,1-.074,1.847A2.519,2.519,0,0,0,33.654,34c-.406.48-.812.923-1.219,1.4-.185.222-.406.443-.7.369a1.512,1.512,0,0,1-.739-.7,11.238,11.238,0,0,1-1.108-2.659,19.724,19.724,0,0,1-.739-3.324,4.184,4.184,0,0,1,.406-2.511A2.361,2.361,0,0,1,31.143,25.474Z" transform="translate(-28.165 -24.286)" fill="#326690"/>
      <path id="Path_301" data-name="Path 301" d="M57.492,35.54a1.965,1.965,0,0,1,1.293-.185,9.708,9.708,0,0,0-.148,1.81,4.385,4.385,0,0,1-.074,2.29,10.834,10.834,0,0,1-1.293-2.918A1.2,1.2,0,0,1,57.492,35.54Zm.148.148c-.111.111,0,.259.111.3a.441.441,0,0,0,.628-.369A.874.874,0,0,0,57.639,35.688Z" transform="translate(-45.909 -30.548)" fill="#326690"/>
      <path id="Path_302" data-name="Path 302" d="M40.4,36.111a2.806,2.806,0,0,1,1.588-.517.667.667,0,0,1,.628.517,4.7,4.7,0,0,1-.148,3.176,6.481,6.481,0,0,0-.443,1.182,1.812,1.812,0,0,1-1.7-1.477,5.345,5.345,0,0,1,.037-1.33A11.008,11.008,0,0,0,40.4,36.111Zm1.33-.222c-.074.037-.148.074-.148.148a.465.465,0,0,0,.7.3c.111-.074.222-.222.111-.332A.716.716,0,0,0,41.733,35.889Z" transform="translate(-35.209 -30.713)" fill="#326690"/>
      <path id="Path_303" data-name="Path 303" d="M60.648,50.294c.111-.074.3-.185.443-.074a3.2,3.2,0,0,0,1.957.074,2.667,2.667,0,0,1-1.477.628,2.092,2.092,0,0,1-1.071-.074A.748.748,0,0,1,60.648,50.294Z" transform="translate(-47.957 -39.91)" fill="#326690"/>
      <path id="Path_304" data-name="Path 304" d="M42.382,51.109c.332-.185.48-.591.812-.812.332-.037.628.48.332.739a1.867,1.867,0,0,1-2.327.443A7.26,7.26,0,0,0,42.382,51.109Z" transform="translate(-35.784 -39.987)" fill="#326690"/>
      <path id="Path_305" data-name="Path 305" d="M36.236,22.728a7.324,7.324,0,0,1,3.1-.185,4.844,4.844,0,0,1,2.511,1.293,2.461,2.461,0,0,1,.7,1.034,4.986,4.986,0,0,1,0,2.216,16.129,16.129,0,0,1-1.884,4.949c.406,0,.776-.111,1.182-.148a.848.848,0,0,1,.886.591,1.118,1.118,0,0,1-.443,1.071,4.218,4.218,0,0,1-2.918.886,9.034,9.034,0,0,1-.517,3.139,2.608,2.608,0,0,1-.923,1.071,3.369,3.369,0,0,1-1.293.443,2.094,2.094,0,0,1-1.477-.259,1.979,1.979,0,0,1-.776-1.108,10.546,10.546,0,0,1-.369-2.844,2.962,2.962,0,0,1-2.179.037,1.545,1.545,0,0,1-.665-.406,1.566,1.566,0,0,1-1.33.332,2.519,2.519,0,0,1-1.33-1.145,11.544,11.544,0,0,1-1.182-2.881,21.966,21.966,0,0,1-.776-3.508,5.012,5.012,0,0,1,.591-3.1,3.287,3.287,0,0,1,2.105-1.44,7.51,7.51,0,0,1,3.619.332,4.328,4.328,0,0,1,1.145-.443A7.356,7.356,0,0,1,36.236,22.728Zm-.037.443c-.074.037-.185-.037-.259-.037a3.919,3.919,0,0,0-2.955.443,7.5,7.5,0,0,0-3.25-.48,2.882,2.882,0,0,0-2.105,1.145,4.727,4.727,0,0,0-.591,2.991,24.07,24.07,0,0,0,.923,3.989,10.255,10.255,0,0,0,1.071,2.327,1.613,1.613,0,0,0,1.034.739,1.191,1.191,0,0,0,1-.48c.443-.517.849-1,1.293-1.477a2.891,2.891,0,0,0,.923.259c-.185.222-.332.48-.591.554-.369.148-.812.111-1.145.369a.386.386,0,0,0-.037.591,1.908,1.908,0,0,0,1.182.406,2.191,2.191,0,0,0,1.625-.554,23.778,23.778,0,0,0,.111,2.807,2.074,2.074,0,0,0,.7,1.44,1.81,1.81,0,0,0,1.44.332,3.445,3.445,0,0,0,1.366-.554,2.279,2.279,0,0,0,.665-1.4c.148-.923.259-1.847.369-2.807A3.5,3.5,0,0,0,41.96,33c.148-.148.332-.443.148-.628-.148-.185-.443-.148-.665-.111a2.454,2.454,0,0,1-1.625-.037,16.09,16.09,0,0,0,2.068-4.764,8.617,8.617,0,0,0,.259-1.957,2.118,2.118,0,0,0-.3-1.071A4.316,4.316,0,0,0,39.6,22.913,8.22,8.22,0,0,0,36.2,23.171Z" transform="translate(-26.536 -22.426)"/>
    </g>
  </g>
</svg>
