<svg id="rails" xmlns="http://www.w3.org/2000/svg" width="49.756" height="17.485" viewBox="0 0 49.756 17.485">
  <path id="Path_252" data-name="Path 252" d="M170.337,93.823s2.2-.188,2.2-3.025a3,3,0,0,0-2.661-3.1h-4.795v8.95h2.41V94.488l2.084,2.159h3.565Zm-.929-1.833h-1.92V89.945h1.933a1.009,1.009,0,0,1,.54,1.017A1.036,1.036,0,0,1,169.408,91.99Zm9.075-4.23h-2.448A2.351,2.351,0,0,0,173.7,90.1v6.552h2.448V95.078h2.3v1.569h2.372V90.1A2.316,2.316,0,0,0,178.484,87.76Zm-.038,4.782h-2.31V90.371s0-.49.766-.49h.841c.678,0,.69.49.69.49v2.171Zm3.489-4.782h2.548v8.887h-2.548Zm6.125,6.59V87.76h-2.535v8.887h5.962v-2.3Zm4.268.025v2.272h4.1a2.347,2.347,0,0,0,2.335-2.335v-.879a2.318,2.318,0,0,0-2.335-2.335h-2.046V90.045h4.054V87.76H194.55a2.389,2.389,0,0,0-2.347,2.372v.791a2.346,2.346,0,0,0,2.347,2.335c2.824.013-.678,0,1.933,0v1.1Z" transform="translate(-149.012 -79.162)" fill="#c00"/>
  <path id="Path_253" data-name="Path 253" d="M.879,17.472h9.916S8.9,8.824,15.175,5.322c1.368-.665,5.724-3.151,12.853,2.121.226-.188.439-.339.439-.339S21.941.59,14.673,1.318c-3.653.326-8.146,3.653-10.782,8.046A21.712,21.712,0,0,0,.879,17.472ZM21.539,2.021l.05-.841A6.138,6.138,0,0,0,20.372.741l-.05.828C20.736,1.707,21.137,1.858,21.539,2.021ZM20.347,4.682l-.05.791a7,7,0,0,1,1.243.151l.05-.778A8.889,8.889,0,0,0,20.347,4.682ZM15.7.766h.126L15.577,0a10.015,10.015,0,0,0-1.2.075l.238.741A10.6,10.6,0,0,1,15.7.766Zm.6,4.619.289.866a7.941,7.941,0,0,1,1.092-.439l-.276-.828A9.107,9.107,0,0,0,16.3,5.385Zm-5.7-3.3-.565-.866c-.314.163-.64.339-.979.54l.577.879C9.966,2.435,10.28,2.247,10.606,2.084ZM13.18,7.732l.6.9a6.97,6.97,0,0,1,.741-.891l-.565-.854A6.944,6.944,0,0,0,13.18,7.732Zm-1.82,4.042,1.017.8a10.024,10.024,0,0,1,.264-1.469l-.9-.715A11.934,11.934,0,0,0,11.36,11.774Zm-5.5-5.962-.891-.778c-.326.314-.64.628-.929.941l.967.828A12.712,12.712,0,0,1,5.862,5.812ZM2.071,11.422.628,10.9c-.238.54-.5,1.167-.628,1.506l1.443.527C1.607,12.5,1.87,11.887,2.071,11.422Zm9.1,3.54a12.752,12.752,0,0,0,.151,1.582l1.506.54a16.59,16.59,0,0,1-.3-1.632Z" fill="#c00"/>
</svg>
