<svg xmlns="http://www.w3.org/2000/svg" width="41.286" height="37.12" viewBox="0 0 41.286 37.12">
  <g id="react" transform="translate(-0.754 -0.784)">
    <path id="Path_352" data-name="Path 352" d="M.754,19.278C.754,22.4,3.8,25.306,8.6,26.947c-.959,4.826-.172,8.715,2.456,10.23,2.7,1.558,6.725.479,10.544-2.859,3.723,3.2,7.486,4.465,10.111,2.945,2.7-1.562,3.519-5.715,2.534-10.691,5-1.653,7.8-4.135,7.8-7.294,0-3.046-3.05-5.68-7.785-7.311,1.06-5.182.162-8.977-2.575-10.555-2.638-1.521-6.445-.2-10.222,3.092-3.93-3.49-7.7-4.555-10.433-2.972C8.389,3.058,7.637,7.018,8.6,11.933,3.961,13.55.754,16.244.754,19.278Z" transform="translate(0 0)" fill="#fff"/>
    <path id="Path_353" data-name="Path 353" d="M45.39,25.088q-.571-.2-1.18-.372.1-.408.182-.805c.893-4.337.309-7.831-1.686-8.981-1.913-1.1-5.041.047-8.2,2.8q-.456.4-.913.838-.3-.291-.608-.561c-3.311-2.94-6.63-4.179-8.623-3.025-1.911,1.106-2.477,4.391-1.673,8.5q.116.6.271,1.215c-.47.133-.923.275-1.357.427-3.882,1.353-6.361,3.474-6.361,5.675,0,2.272,2.661,4.551,6.7,5.933q.479.164.991.31-.166.669-.288,1.309c-.767,4.039-.168,7.246,1.738,8.345,1.969,1.135,5.272-.032,8.489-2.844q.381-.333.765-.705.5.479.991.9c3.116,2.682,6.194,3.764,8.1,2.662,1.967-1.138,2.606-4.584,1.776-8.775q-.1-.48-.22-.98.348-.1.682-.213c4.2-1.393,6.938-3.644,6.938-5.947,0-2.208-2.559-4.343-6.519-5.707Z" transform="translate(-12.138 -11.502)" fill="#53c1de"/>
    <path id="Path_354" data-name="Path 354" d="M52.564,43.322q-.3.1-.616.193a36.738,36.738,0,0,0-1.857-4.645,36.731,36.731,0,0,0,1.784-4.577q.563.163,1.09.344c3.393,1.168,5.463,2.9,5.463,4.226,0,1.417-2.235,3.257-5.864,4.46Zm-1.506,2.984a13.264,13.264,0,0,1,.176,4.839,3.237,3.237,0,0,1-1.2,2.276c-1.156.669-3.627-.2-6.291-2.494q-.458-.394-.922-.841a36.8,36.8,0,0,0,3.073-3.9,36.56,36.56,0,0,0,4.966-.765q.112.453.2.887Zm-15.229,7a3.237,3.237,0,0,1-2.572.1c-1.157-.667-1.637-3.242-.982-6.7q.113-.593.268-1.217a36.837,36.837,0,0,0,4.941.715,38.132,38.132,0,0,0,3.148,3.889q-.351.339-.7.643a13.266,13.266,0,0,1-4.1,2.569ZM30.54,43.314a13.266,13.266,0,0,1-4.276-2.272A3.237,3.237,0,0,1,24.9,38.862c0-1.335,1.991-3.038,5.31-4.2.4-.14.824-.273,1.262-.4A37.545,37.545,0,0,0,33.255,38.9a38.159,38.159,0,0,0-1.809,4.7q-.468-.135-.905-.283Zm1.773-12.068c-.689-3.522-.231-6.178.92-6.845,1.227-.71,3.939.3,6.8,2.841q.274.243.55.508a37.522,37.522,0,0,0-3.124,3.865,38.282,38.282,0,0,0-4.893.76q-.143-.576-.252-1.13Zm15.816,3.905q-.544-.94-1.115-1.834c1.17.148,2.291.344,3.343.584a33.459,33.459,0,0,1-1.174,3.157q-.5-.947-1.055-1.908Zm-6.45-6.282a33.481,33.481,0,0,1,2.158,2.6q-1.076-.051-2.175-.051t-2.158.051c.712-.939,1.442-1.812,2.176-2.6Zm-6.491,6.293q-.544.943-1.035,1.9c-.456-1.082-.846-2.146-1.165-3.173,1.046-.234,2.162-.426,3.324-.571q-.578.9-1.124,1.847Zm1.157,9.36a33.336,33.336,0,0,1-3.379-.543c.324-1.045.723-2.132,1.188-3.237q.492.951,1.039,1.9h0q.557.962,1.151,1.883Zm5.377,4.444c-.742-.8-1.483-1.687-2.206-2.64q1.053.041,2.145.042,1.121,0,2.213-.049a33.319,33.319,0,0,1-2.152,2.648ZM49.2,40.685a33.229,33.229,0,0,1,1.231,3.225,33.279,33.279,0,0,1-3.42.583q.571-.9,1.126-1.866T49.2,40.685Zm-2.42,1.16c-.573.994-1.162,1.942-1.759,2.838-1.088.078-2.212.118-3.358.118s-2.251-.035-3.32-.1c-.621-.907-1.223-1.859-1.792-2.842h0c-.568-.981-1.091-1.97-1.564-2.954.474-.986.995-1.977,1.56-2.956h0c.566-.982,1.162-1.929,1.778-2.83,1.09-.082,2.209-.125,3.339-.125h0c1.135,0,2.255.043,3.345.126.606.895,1.2,1.839,1.767,2.821s1.1,1.977,1.581,2.942c-.476.982-1,1.975-1.575,2.968ZM50.01,24.354c1.228.708,1.705,3.564.934,7.308q-.074.358-.165.729a37.522,37.522,0,0,0-4.9-.774,36.794,36.794,0,0,0-3.1-3.868q.423-.407.843-.773c2.707-2.356,5.237-3.286,6.39-2.621Z" transform="translate(-20.224 -19.57)" fill="#fff"/>
    <path id="Path_355" data-name="Path 355" d="M111.318,94.665a3.274,3.274,0,1,1-3.274,3.274,3.274,3.274,0,0,1,3.274-3.274" transform="translate(-89.88 -78.647)" fill="#53c1de"/>
  </g>
</svg>
