<svg xmlns="http://www.w3.org/2000/svg" width="34.876" height="29.779" viewBox="0 0 34.876 29.779">
  <g id="redis" transform="translate(0 -0.583)">
    <path id="Path_341" data-name="Path 341" d="M33.509,115.08c-1.861.97-11.5,4.934-13.555,6s-3.193,1.06-4.814.285-11.882-4.92-13.73-5.8C.486,115.125,0,114.752,0,114.4v-3.525s13.358-2.908,15.514-3.682,2.9-.8,4.74-.129,12.808,2.652,14.622,3.316c0,0,0,3.148,0,3.475,0,.348-.418.731-1.366,1.225" transform="translate(0 -91.56)" fill="#912626"/>
    <path id="Path_342" data-name="Path 342" d="M33.509,93.685c-1.861.97-11.5,4.934-13.555,6s-3.193,1.06-4.814.285-11.882-4.92-13.73-5.8-1.887-1.491-.071-2.2,12.019-4.714,14.176-5.488,2.9-.8,4.739-.129S31.673,90.839,33.486,91.5s1.884,1.212.022,2.182" transform="translate(0 -73.67)" fill="#c6302b"/>
    <path id="Path_343" data-name="Path 343" d="M33.509,73.211c-1.861.97-11.5,4.934-13.555,6s-3.193,1.06-4.814.284S3.258,74.581,1.41,73.7C.486,73.256,0,72.884,0,72.532V69.006S13.358,66.1,15.514,65.325s2.9-.8,4.74-.129,12.808,2.652,14.622,3.316c0,0,0,3.148,0,3.476,0,.348-.418.731-1.366,1.224" transform="translate(0 -55.396)" fill="#912626"/>
    <path id="Path_344" data-name="Path 344" d="M33.509,51.817c-1.861.97-11.5,4.934-13.555,6s-3.193,1.059-4.814.284S3.258,53.186,1.41,52.3s-1.887-1.491-.071-2.2,12.019-4.714,14.176-5.488,2.9-.8,4.739-.129,11.419,4.487,13.233,5.151,1.884,1.212.022,2.182h0" transform="translate(0 -37.505)" fill="#c6302b"/>
    <path id="Path_345" data-name="Path 345" d="M33.509,29.792c-1.861.97-11.5,4.935-13.555,6s-3.193,1.06-4.814.284-11.882-4.92-13.73-5.8C.486,29.837,0,29.464,0,29.112V25.587s13.358-2.908,15.514-3.681,2.9-.8,4.74-.129,12.808,2.652,14.622,3.316c0,0,0,3.148,0,3.476,0,.348-.418.73-1.366,1.224" transform="translate(0 -17.892)" fill="#912626"/>
    <path id="Path_346" data-name="Path 346" d="M33.509,8.4c-1.861.97-11.5,4.934-13.555,6s-3.193,1.059-4.814.285S3.258,9.765,1.41,8.882s-1.887-1.491-.071-2.2S13.358,1.966,15.514,1.192s2.9-.8,4.739-.129S31.673,5.549,33.486,6.214s1.884,1.212.022,2.182" transform="translate(0 0)" fill="#c6302b"/>
    <path id="Path_347" data-name="Path 347" d="M107.189,16.6l-3,.311-.671,1.615-1.084-1.8-3.462-.311,2.584-.932-.775-1.43,2.419.946,2.28-.747-.616,1.479,2.325.871" transform="translate(-85.49 -11.63)" fill="#fff"/>
    <path id="Path_348" data-name="Path 348" d="M95.551,67.755l-5.6-2.321L97.973,64.2l-2.423,3.552" transform="translate(-77.7 -54.953)" fill="#fff"/>
    <path id="Path_349" data-name="Path 349" d="M46.907,39.347c2.367,0,4.286.744,4.286,1.661s-1.919,1.661-4.286,1.661-4.286-.744-4.286-1.661,1.919-1.661,4.286-1.661" transform="translate(-36.815 -33.482)" fill="#fff"/>
    <path id="Path_350" data-name="Path 350" d="M185.295,36l4.746,1.875L185.3,39.747l0-3.749" transform="translate(-160.051 -30.59)" fill="#621b1c"/>
    <path id="Path_351" data-name="Path 351" d="M146.755,38.075,152.005,36l0,3.749-.515.2-4.74-1.874" transform="translate(-126.762 -30.59)" fill="#9a2928"/>
  </g>
</svg>
