<svg xmlns="http://www.w3.org/2000/svg" width="30.025" height="26.211" viewBox="0 0 30.025 26.211">
  <path id="skype" d="M28.815,40.863a3.857,3.857,0,0,1-.7-2.275s0-.009,0-.014A13.11,13.11,0,0,0,10.508,26.265a3.864,3.864,0,0,1-2.372.113,6.4,6.4,0,0,0-6.924,9.906,3.856,3.856,0,0,1,.7,2.275v.014A13.11,13.11,0,0,0,19.518,50.882a3.864,3.864,0,0,1,2.372-.113,6.4,6.4,0,0,0,6.924-9.906ZM15.493,36.224c2.643.628,6.636,1.578,6.636,5.977a4.793,4.793,0,0,1-3,4.654,10.919,10.919,0,0,1-4.3.676,9.48,9.48,0,0,1-6.871-3.36,1.971,1.971,0,0,1,3.082-2.458,5.847,5.847,0,0,0,3.788,1.875c2.67.085,3.28-.71,3.359-1.388.1-.828-.64-1.436-3.606-2.141-2.513-.6-6.312-1.5-6.312-5.552,0-1.261.513-5.378,7.115-5.378a8.926,8.926,0,0,1,6.732,3.422A1.971,1.971,0,0,1,18.949,34.9a5.921,5.921,0,0,0-3.565-1.827c-1.6-.152-3.173.424-3.173,1.275C12.211,35.248,12.663,35.551,15.493,36.224Z" transform="translate(0 -25.468)" fill="#00aaf2"/>
</svg>
