<svg xmlns="http://www.w3.org/2000/svg" width="31.478" height="31.488" viewBox="0 0 31.478 31.488">
  <path id="spring" d="M28.626,1.64a14.535,14.535,0,0,1-1.681,2.984A15.8,15.8,0,1,0,4.9,27.253l.582.517a15.771,15.771,0,0,0,25.9-10.958c.43-4.026-.75-9.117-2.763-15.172ZM7.145,27.343A1.351,1.351,0,1,1,6.1,25.138a1.336,1.336,0,0,1,.849.3,1.357,1.357,0,0,1,.2,1.9Zm21.415-4.731c-3.894,5.194-12.212,3.444-17.546,3.694,0,0-.947.057-1.9.213,0,0,.357-.152.82-.328,3.743-1.3,5.514-1.558,7.789-2.726,4.284-2.181,8.519-6.953,9.4-11.917-1.632,4.776-6.576,8.879-11.081,10.548a75.276,75.276,0,0,1-8.662,2.246l-.225-.119c-3.8-1.849-3.911-10.076,2.988-12.733,3.021-1.164,5.911-.525,9.175-1.3,3.485-.828,7.514-3.444,9.154-6.854,1.837,5.456,4.046,14,.086,19.28Z" fill="#77bc1f"/>
</svg>
