<svg id="sqlite" xmlns="http://www.w3.org/2000/svg" xmlns:xlink="http://www.w3.org/1999/xlink" width="55.387" height="24.582" viewBox="0 0 55.387 24.582">
  <defs>
    <linearGradient id="linear-gradient" x1="0.577" y1="0.02" x2="0.577" y2="0.944" gradientUnits="objectBoundingBox">
      <stop offset="0" stop-color="#97d9f6"/>
      <stop offset="0.92" stop-color="#0f80cc"/>
      <stop offset="1" stop-color="#0f80cc"/>
    </linearGradient>
  </defs>
  <path id="Path_356" data-name="Path 356" d="M173.629,112.044a2.506,2.506,0,0,0-1.8.655,2.26,2.26,0,0,0-.694,1.712,2.816,2.816,0,0,0,.172,1,2.526,2.526,0,0,0,.531.842,7.754,7.754,0,0,0,1.43,1.043,7.252,7.252,0,0,1,1.722,1.306,1.662,1.662,0,0,1,.411,1.062,1.5,1.5,0,0,1-.5,1.186,1.949,1.949,0,0,1-1.339.445,2.189,2.189,0,0,1-2.2-2.253h-.273v2.473h.273c.083-.234.2-.354.349-.354a2.248,2.248,0,0,1,.507.144,4.943,4.943,0,0,0,1.588.34,2.6,2.6,0,0,0,2.6-2.6,2.367,2.367,0,0,0-.5-1.483,7.2,7.2,0,0,0-1.947-1.512,6.436,6.436,0,0,1-1.622-1.225,1.664,1.664,0,0,1-.378-1.052,1.234,1.234,0,0,1,.454-1,1.8,1.8,0,0,1,1.191-.373,1.99,1.99,0,0,1,1.387.5,2.087,2.087,0,0,1,.641,1.387h.273V112.14h-.254a.648.648,0,0,1-.086.21.186.186,0,0,1-.148.048,1.833,1.833,0,0,1-.469-.11,4.179,4.179,0,0,0-1.325-.244Zm8.912,0a4.831,4.831,0,0,0-2.454.636,4.824,4.824,0,0,0-2.4,4.152,4.579,4.579,0,0,0,1.124,3.042,4.712,4.712,0,0,0,2.7,1.655,4.358,4.358,0,0,1,1.028.966,8.1,8.1,0,0,0,1.282,1.263,3.852,3.852,0,0,0,1.129.56,4.443,4.443,0,0,0,1.3.182,3.643,3.643,0,0,0,1.521-.3l-.1-.249a2.423,2.423,0,0,1-.828.139,2.177,2.177,0,0,1-1.2-.392,7.436,7.436,0,0,1-1.5-1.5,5.152,5.152,0,0,0-.584-.665,4.722,4.722,0,0,0,2.817-1.665,4.629,4.629,0,0,0,1.1-3.033,4.554,4.554,0,0,0-1.43-3.4,4.854,4.854,0,0,0-3.511-1.387Zm5.563,0,.014.292c.6,0,.934.176,1.009.531a4.03,4.03,0,0,1,.043.7l0,6.453a1.443,1.443,0,0,1-.206.923,1.1,1.1,0,0,1-.679.249l-.014.292h5.97l.153-1.464h-.273a1.169,1.169,0,0,1-.541.847,3.3,3.3,0,0,1-1.516.244H191.5q-.982,0-1.134-.713a1.489,1.489,0,0,1-.029-.306l.024-6.525a1.677,1.677,0,0,1,.187-.961.931.931,0,0,1,.689-.268l-.014-.292H188.1Zm-5.467.354a3.024,3.024,0,0,1,2.483,1.205,5.191,5.191,0,0,1,.957,3.31,4.919,4.919,0,0,1-.966,3.186,3.137,3.137,0,0,1-2.569,1.2,3,3,0,0,1-2.492-1.234,5.919,5.919,0,0,1,.01-6.453,3.123,3.123,0,0,1,2.578-1.21Zm13.728,1.387a.416.416,0,0,0-.34.148.4.4,0,0,0-.081.364.64.64,0,0,0,.234.368.628.628,0,0,0,.407.158.382.382,0,0,0,.325-.158.443.443,0,0,0,.072-.368.628.628,0,0,0-.225-.364.6.6,0,0,0-.392-.148Zm3.937.99a1.808,1.808,0,0,1-1.607,1.55l.01.273h.961l-.019,3.224a6.817,6.817,0,0,0,.057,1.1.8.8,0,0,0,.875.674,3.181,3.181,0,0,0,2.224-1.292l-.234-.2a2.3,2.3,0,0,1-1.488.851c-.266,0-.431-.153-.493-.454a1.155,1.155,0,0,1-.024-.258l.01-3.65h1.469l-.014-.435h-1.449v-1.387Zm5.678,1.215a2.329,2.329,0,0,0-2.009,1.191,3.383,3.383,0,0,0-.474,2.64,2.276,2.276,0,0,0,.722,1.315,2.057,2.057,0,0,0,1.378.464,2.759,2.759,0,0,0,1.531-.392,3.593,3.593,0,0,0,.837-1.268l-.206-.215a2.227,2.227,0,0,1-1.861,1.134,1.52,1.52,0,0,1-1.579-1.406,3.429,3.429,0,0,1-.057-.383,4.975,4.975,0,0,0,2.315-.861c.521-.414,1.045-.852.947-1.315a1.066,1.066,0,0,0-.421-.655,2.466,2.466,0,0,0-1.124-.249Zm-8.978.033-1.77.407v.316l.612-.077a.474.474,0,0,1,.526.4,2.154,2.154,0,0,1,.033.373l-.019,2.894c0,.4-.049.633-.139.7a1.433,1.433,0,0,1-.713.105l-.01.273h2.808l0-.273a1.956,1.956,0,0,1-.756-.091.453.453,0,0,1-.22-.335,3.547,3.547,0,0,1-.038-.612l.01-4.085Zm8.529.536a.809.809,0,0,1,.5.2.758.758,0,0,1,.3.431c.16.769-.522,1.3-2.057,1.6a2.71,2.71,0,0,1,.3-1.531,1.1,1.1,0,0,1,.957-.694Z" transform="translate(-152.577 -99.918)" fill="#003b57"/>
  <path id="Path_357" data-name="Path 357" d="M17.087,9.952H1.856A1.862,1.862,0,0,0,0,11.808v16.8a1.862,1.862,0,0,0,1.856,1.856H11.888c-.114-4.991,1.591-14.678,5.2-20.509Z" transform="translate(0 -8.875)" fill="#0f80cc"/>
  <path id="Path_358" data-name="Path 358" d="M20.995,14.955H6.317A1.316,1.316,0,0,0,5,16.27V31.842a36.42,36.42,0,0,1,11.763-2.327,107.114,107.114,0,0,1,4.229-14.56Z" transform="translate(-4.461 -13.337)" fill="url(#linear-gradient)"/>
  <path id="Path_359" data-name="Path 359" d="M110.194.527c-1.043-.93-2.306-.557-3.553.55-.185.164-.37.347-.553.541a22.018,22.018,0,0,0-4.727,9.653,8.823,8.823,0,0,1,.55,1.579c.032.121.06.236.083.333.054.23.083.378.083.378s-.019-.072-.1-.3l-.051-.147c-.008-.023-.02-.051-.033-.081-.139-.323-.524-1.006-.693-1.3-.145.427-.273.827-.38,1.189a10.517,10.517,0,0,1,.787,2.427s-.026-.1-.149-.446a16.505,16.505,0,0,0-.781-1.481,3.5,3.5,0,0,0-.229,1.495,5.209,5.209,0,0,1,.427,1.2c.289,1.113.49,2.467.49,2.467s.007.09.017.228a22.668,22.668,0,0,0,.056,2.779,9.85,9.85,0,0,0,.506,2.688l.156-.085a12.015,12.015,0,0,1-.415-4.013,30.576,30.576,0,0,1,1.68-8.4c1.742-4.6,4.16-8.294,6.372-10.058-2.016,1.821-4.746,7.716-5.563,9.9a39.58,39.58,0,0,0-1.954,6.936,5.384,5.384,0,0,1,2.854-2.946s1.069-1.318,2.318-3.2a22.719,22.719,0,0,0-2.389.636c-.607.255-.771.342-.771.342a20.754,20.754,0,0,1,3.654-1.74c2.32-3.655,4.848-8.846,2.3-11.117" transform="translate(-89.554 0)" fill="#003b57"/>
</svg>
