<svg xmlns="http://www.w3.org/2000/svg" width="34.999" height="29" viewBox="0 0 34.999 29">
  <path id="TM" d="M32,29.5H4A3.5,3.5,0,0,1,.5,26V4A3.5,3.5,0,0,1,4,.5H32A3.5,3.5,0,0,1,35.5,4V26A3.5,3.5,0,0,1,32,29.5ZM25.461,12.173h.062c-.052,1.184-.085,2.009-.093,2.325s-.01.561-.01.772V20H27.4V10.006H24.511L22,17.648h-.041L19.6,10.006H16.711V20H18.6V15.351c0-.531-.044-1.605-.13-3.192h.061L20.943,20h1.941l2.576-7.827ZM7.627,10.006v1.763H10.34V20h2.12v-8.23h2.714V10.006Z" transform="translate(-0.5 -0.5)" fill="#00aaf2"/>
</svg>
