<svg id="xamarin" xmlns="http://www.w3.org/2000/svg" width="33.469" height="29.779" viewBox="0 0 33.469 29.779">
  <path id="Path_368" data-name="Path 368" d="M9.657,0A2.656,2.656,0,0,0,7.413,1.3L.336,13.592a2.675,2.675,0,0,0,0,2.6L7.413,28.482a2.655,2.655,0,0,0,2.244,1.3H23.812a2.656,2.656,0,0,0,2.244-1.3l7.077-12.294a2.675,2.675,0,0,0,0-2.6L26.056,1.3A2.655,2.655,0,0,0,23.812,0Zm.128,7.192a.307.307,0,0,1,.059,0h2.441a.322.322,0,0,1,.267.159l4.142,7.38a.318.318,0,0,1,.039.119.318.318,0,0,1,.039-.119l4.132-7.38a.323.323,0,0,1,.277-.159h2.441a.334.334,0,0,1,.277.466L19.858,14.89,23.9,22.112a.334.334,0,0,1-.277.476H21.182a.323.323,0,0,1-.277-.168l-4.132-7.38a.318.318,0,0,1-.039-.119.318.318,0,0,1-.039.119l-4.142,7.38a.323.323,0,0,1-.267.168H9.845a.334.334,0,0,1-.277-.476l4.043-7.222L9.568,7.658a.333.333,0,0,1,.217-.466Z" fill="#3498db"/>
</svg>
